<svg id="Layer_1" data-name="Layer 1" xmlns="http://www.w3.org/2000/svg" viewBox="0 0 98.57 98.12"><defs><style>.cls-1{fill:#465575;stroke:#465575;stroke-miterlimit:10;}</style></defs><path class="cls-1" d="M30.91,99h-2a6.23,6.23,0,0,1-5.95-4.46c-.6-2-1.46-4.94-2.59-8.76A33.56,33.56,0,0,1,19,75.32,7.54,7.54,0,0,1,26.52,68a1,1,0,1,1,0,2,5.49,5.49,0,0,0-5.44,5.33A31.62,31.62,0,0,0,22.3,85.2c1.13,3.82,2,6.72,2.58,8.77a4.19,4.19,0,0,0,4,3h2a1,1,0,1,1,0,2Z" transform="translate(-0.32 -1.38)"/><path class="cls-1" d="M57,57.3a1,1,0,0,1-1-.69A25.23,25.23,0,0,1,54.34,47a1,1,0,0,1,1.08-1,1,1,0,0,1,1,1.08A23.31,23.31,0,0,0,58,55.94a1,1,0,0,1-.63,1.3A1,1,0,0,1,57,57.3Z" transform="translate(-0.32 -1.38)"/><path class="cls-1" d="M53,99a4.74,4.74,0,0,1-4.63-3.76,80.73,80.73,0,0,1-1.48-9.75,1.4,1.4,0,0,0-1.4-1.28H41a1.4,1.4,0,0,0-1.4,1.28,80.73,80.73,0,0,1-1.48,9.75,4.74,4.74,0,0,1-9.12.55c-4.87-14.18-4.17-30.4-1-38.47,2.15-5.56,2.37-8.65,2.31-10a1,1,0,0,1,1-1.07,1,1,0,0,1,1.07,1c.11,2.61-.76,6.45-2.45,10.83C27.31,64.68,26,80.55,31,95.12a2.69,2.69,0,0,0,5.18-.3,77.59,77.59,0,0,0,1.43-9.48A3.47,3.47,0,0,1,41,82.16h4.46a3.45,3.45,0,0,1,3.44,3.18,79.47,79.47,0,0,0,1.44,9.48,2.69,2.69,0,0,0,5.18.3c.46-1.32.66-1.93,1-3.31a1,1,0,1,1,2,.52c-.38,1.46-.6,2.08-1.07,3.46A4.76,4.76,0,0,1,53,99Z" transform="translate(-0.32 -1.38)"/><path class="cls-1" d="M49.28,95.71h-.14a42.4,42.4,0,0,0-11.8,0,1,1,0,1,1-.28-2,44.12,44.12,0,0,1,12.36,0,1,1,0,0,1-.14,2Z" transform="translate(-0.32 -1.38)"/><path class="cls-1" d="M20.47,74.2a1,1,0,0,1-.63-.22C8.75,65.29,16.05,48.22,16.37,47.5a1,1,0,0,1,1.16-.59,1,1,0,0,1,.8,1c-.22,7.24,4.93,14,9.28,18.3a1,1,0,0,1,0,1.45,1,1,0,0,1-1.44,0c-3.68-3.67-7.89-8.95-9.36-14.95-1.36,5.39-2.34,14.43,4.3,19.63a1,1,0,0,1,.17,1.44A1,1,0,0,1,20.47,74.2Z" transform="translate(-0.32 -1.38)"/><path class="cls-1" d="M42.94,58.63a22.49,22.49,0,0,1-13.28-4.24A1,1,0,0,1,31,52.81c.43.35,10.6,8.47,24.73-.05a1,1,0,1,1,1.06,1.75A26.45,26.45,0,0,1,42.94,58.63Z" transform="translate(-0.32 -1.38)"/><path class="cls-1" d="M46.11,67.69H40.37a1,1,0,0,1-1-1v-6a1,1,0,0,1,1-1h5.74a1,1,0,0,1,1,1v6A1,1,0,0,1,46.11,67.69Zm-4.72-2h3.7v-4h-3.7Z" transform="translate(-0.32 -1.38)"/><path class="cls-1" d="M43.24,61.69a1,1,0,0,1-1-1v-3a1,1,0,1,1,2.05,0v3A1,1,0,0,1,43.24,61.69Z" transform="translate(-0.32 -1.38)"/><path class="cls-1" d="M43.24,48.13a5.76,5.76,0,0,1-5.75-5.75V40.06a1,1,0,1,1,2,0v2.32a3.7,3.7,0,0,0,3.7,3.7,1,1,0,0,1,0,2.05Z" transform="translate(-0.32 -1.38)"/><path class="cls-1" d="M35.4,23.67a4.51,4.51,0,1,1,4.52-4.51A4.51,4.51,0,0,1,35.4,23.67Zm0-7a2.46,2.46,0,1,0,2.47,2.46A2.46,2.46,0,0,0,35.4,16.7Z" transform="translate(-0.32 -1.38)"/><path class="cls-1" d="M19.4,38.28A11.35,11.35,0,0,1,16.86,38a1,1,0,0,1-.64-1.49c2.22-4,1.15-9.76-.14-13.9a14.65,14.65,0,0,1,6.51-17C31.28.64,55.2.64,63.89,5.59a14.65,14.65,0,0,1,6.51,17c-1.29,4.14-2.36,9.91-.15,13.9a1,1,0,0,1,0,.9,1,1,0,0,1-.68.59c-.21.05-5.06,1.27-8.94-1.85-3.23-2.58-4.74-7.26-4.51-13.92a1,1,0,0,1,1.06-1,1,1,0,0,1,1,1.06c-.21,6,1.05,10.1,3.74,12.25a8.32,8.32,0,0,0,5.89,1.64c-1.75-4.45-.69-10.08.59-14.19A12.57,12.57,0,0,0,62.87,7.37c-8.07-4.6-31.19-4.6-39.26,0A12.58,12.58,0,0,0,18,22c1.28,4.11,2.34,9.73.6,14.19a8.41,8.41,0,0,0,5.91-1.65c2.68-2.16,3.93-6.28,3.72-12.24a1,1,0,0,1,1-1.06,1,1,0,0,1,1.06,1C30.54,28.9,29,33.58,25.8,36.16A10.11,10.11,0,0,1,19.4,38.28Z" transform="translate(-0.32 -1.38)"/><path class="cls-1" d="M43.4,52.49h-.34c-16.88,0-18.76-17-18.78-17.14a1,1,0,0,1,.92-1.12,1,1,0,0,1,1.12.91c.07.63,1.74,15.31,16.76,15.31h.31c15,0,16.7-14.68,16.77-15.31a1,1,0,0,1,1.12-.91,1,1,0,0,1,.92,1.12C62.18,35.52,60.3,52.49,43.4,52.49Z" transform="translate(-0.32 -1.38)"/><path class="cls-1" d="M43.24,35.3a7,7,0,0,1-4.57-1.7,3.75,3.75,0,0,1-1.57-3.18c.32-3.33,4-4.22,6.14-4.22s5.82.89,6.14,4.22a3.75,3.75,0,0,1-1.57,3.18A7,7,0,0,1,43.24,35.3Zm0-7s-3.87.05-4.1,2.36c0,.53.45,1.07.87,1.44a5,5,0,0,0,6.46,0c.42-.37.92-.91.87-1.44C47.11,28.3,43.27,28.25,43.24,28.25Z" transform="translate(-0.32 -1.38)"/><path class="cls-1" d="M49.14,41.22a8.21,8.21,0,0,1-5.41-2.35.73.73,0,0,0-1,0c-3.28,2.93-6.92,3.13-10,.54a1,1,0,1,1,1.33-1.57c2.85,2.42,5.53,1.06,7.28-.5a2.78,2.78,0,0,1,3.72,0c1.75,1.56,4.43,2.92,7.28.5a1,1,0,0,1,1.33,1.57A7,7,0,0,1,49.14,41.22Z" transform="translate(-0.32 -1.38)"/><path class="cls-1" d="M43.24,48.13a1,1,0,1,1,0-2.05,3.7,3.7,0,0,0,3.7-3.7V40.06a1,1,0,1,1,2.05,0v2.32A5.76,5.76,0,0,1,43.24,48.13Z" transform="translate(-0.32 -1.38)"/><path class="cls-1" d="M51.08,23.67a4.51,4.51,0,1,1,4.51-4.51A4.52,4.52,0,0,1,51.08,23.67Zm0-7a2.46,2.46,0,1,0,2.46,2.46A2.47,2.47,0,0,0,51.08,16.7Z" transform="translate(-0.32 -1.38)"/><path class="cls-1" d="M97.36,99H1.84a1,1,0,0,1,0-2H97.36a1,1,0,0,1,0,2Z" transform="translate(-0.32 -1.38)"/><path class="cls-1" d="M73.33,99a25.06,25.06,0,1,1,25-25.06A25.09,25.09,0,0,1,73.33,99Zm0-48.06a23,23,0,1,0,23,23A23,23,0,0,0,73.33,50.94Z" transform="translate(-0.32 -1.38)"/><path class="cls-1" d="M73.33,92.9a19,19,0,1,1,19-19A19,19,0,0,1,73.33,92.9Zm0-35.87A16.91,16.91,0,1,0,90.24,73.94,16.94,16.94,0,0,0,73.33,57Z" transform="translate(-0.32 -1.38)"/><path class="cls-1" d="M73.27,85.11a1,1,0,0,1-.75-.33L62.18,73.63a1,1,0,1,1,1.5-1.39L73,82.32l9-17.48a1,1,0,0,1,1.83.94L74.18,84.55a1,1,0,0,1-.77.55Z" transform="translate(-0.32 -1.38)"/></svg>