<svg xmlns="http://www.w3.org/2000/svg" width="18" height="20" viewBox="0 0 18 20">
  <path id="Combined_Shape" data-name="Combined Shape" d="M2.7,20A2.609,2.609,0,0,1,0,17.5V9.167a2.609,2.609,0,0,1,2.7-2.5V5.833A6.087,6.087,0,0,1,9,0a6.087,6.087,0,0,1,6.3,5.834v.832a2.609,2.609,0,0,1,2.7,2.5V17.5A2.609,2.609,0,0,1,15.3,20ZM1.8,9.167V17.5a.87.87,0,0,0,.9.833H15.3a.87.87,0,0,0,.9-.833V9.167a.87.87,0,0,0-.9-.833H2.7A.87.87,0,0,0,1.8,9.167ZM4.5,5.833v.833h9V5.833A4.348,4.348,0,0,0,9,1.667,4.348,4.348,0,0,0,4.5,5.833Zm3.6,10v-1.4a2.522,2.522,0,0,1-1.8-2.346A2.609,2.609,0,0,1,9,9.583a2.609,2.609,0,0,1,2.7,2.5A2.522,2.522,0,0,1,9.9,14.43v1.4a.9.9,0,0,1-1.8,0Zm0-3.749A.9.9,0,1,0,9,11.25.87.87,0,0,0,8.1,12.083Z" fill="#182a53"/>
</svg>
