<?xml version="1.0" encoding="utf-8"?>
<!-- Generator: Adobe Illustrator 25.0.0, SVG Export Plug-In . SVG Version: 6.00 Build 0)  -->
<svg version="1.1" id="Layer_1" xmlns="http://www.w3.org/2000/svg" xmlns:xlink="http://www.w3.org/1999/xlink" x="0px" y="0px"
	 viewBox="0 0 20 20" style="enable-background:new 0 0 20 20;" xml:space="preserve">
<style type="text/css">
	.st0{fill:#182A53;}
</style>
<path id="Shape" class="st0" d="M10,20C4.5,20,0,15.5,0,10S4.5,0,10,0s10,4.5,10,10C20,15.5,15.5,20,10,20z M10,1.4
	c-4.7,0-8.6,3.8-8.6,8.6s3.8,8.6,8.6,8.6s8.6-3.8,8.6-8.6C18.6,5.3,14.7,1.4,10,1.4z"/>
<g>
	<path id="Path" class="st0" d="M13.6,14.3c-0.2,0-0.4-0.1-0.5-0.2L5.9,6.9c-0.3-0.3-0.3-0.7,0-1c0.3-0.3,0.7-0.3,1,0l7.1,7.1
		c0.3,0.3,0.3,0.7,0,1C13.9,14.2,13.8,14.3,13.6,14.3L13.6,14.3z"/>
	<path id="Path_1_" class="st0" d="M6.4,14.3c-0.4,0-0.7-0.3-0.7-0.7c0-0.2,0.1-0.4,0.2-0.5l7.1-7.1c0.3-0.3,0.7-0.3,1,0
		c0.3,0.3,0.3,0.7,0,1l-7.1,7.1C6.8,14.2,6.6,14.3,6.4,14.3z"/>
</g>
</svg>
