<svg xmlns="http://www.w3.org/2000/svg" width="200" height="200" viewBox="0 0 200 200">
  <g id="Icon_B-preview" data-name="Icon / B-preview" transform="translate(0 -0.033)">
    <path id="Combined_Shape" data-name="Combined Shape" d="M24.921,200A24.987,24.987,0,0,1,0,175V25A24.989,24.989,0,0,1,24.921,0H99.667a8.335,8.335,0,0,1,0,16.67H24.921A8.318,8.318,0,0,0,16.614,25V175a8.324,8.324,0,0,0,8.307,8.335H99.667a8.33,8.33,0,0,1,0,16.661ZM135.28,155.852a8.351,8.351,0,0,1,.09-11.784l36.081-35.732h-96.7a8.335,8.335,0,0,1,0-16.67h96.7L135.37,55.933a8.316,8.316,0,1,1,11.655-11.866l50.5,50a8.348,8.348,0,0,1,0,11.866l-50.5,50a8.281,8.281,0,0,1-11.745-.081Z" transform="translate(0 0.033)" fill="#465575"/>
  </g>
</svg>
