<svg id="Combined_Shape" data-name="Combined Shape" xmlns="http://www.w3.org/2000/svg" width="20" height="16" viewBox="0 0 20 16">
  <path id="Combined_Shape-2" data-name="Combined Shape" d="M.833,16A.929.929,0,0,1,0,15a.953.953,0,0,1,.736-.994L.833,14H10a.928.928,0,0,1,.833,1,.953.953,0,0,1-.736.993L10,16Zm0-7A.928.928,0,0,1,0,8a.953.953,0,0,1,.736-.994L.833,7H19.166A.928.928,0,0,1,20,8a.954.954,0,0,1-.736.994l-.1.006ZM10,2a.928.928,0,0,1-.833-1A.955.955,0,0,1,9.9.006L10,0h9.167A.928.928,0,0,1,20,1a.953.953,0,0,1-.736.994l-.1.006Z" fill="#20ace2"/>
</svg>
