<svg xmlns="http://www.w3.org/2000/svg" width="200" height="200" viewBox="0 0 200 200">
  <g id="Icon_B-preview" data-name="Icon / B-preview" transform="translate(0)">
    <path id="Combined_Shape" data-name="Combined Shape" d="M2.15,196.769a9.034,9.034,0,0,1-2.025-7.353l9.091-54.55a9.063,9.063,0,0,1,2.538-4.932L114.748,26.946,133.713,7.983a27.283,27.283,0,0,1,38.568,0l19.747,19.746a27.306,27.306,0,0,1,0,38.565L70.069,188.246a9.064,9.064,0,0,1-4.932,2.538l-54.544,9.09A9.634,9.634,0,0,1,9.072,200,9.06,9.06,0,0,1,2.15,196.769Zm24.518-56.035L20.151,179.84l39.108-6.516L153.773,78.83l-32.6-32.6Zm139.964-74.76,12.534-12.532a9.1,9.1,0,0,0,.756-12l-.756-.855L159.418,20.844l-.855-.756a9.086,9.086,0,0,0-12,.756L134.032,33.377Z" transform="translate(0)" fill="#465575"/>
  </g>
</svg>
