<svg xmlns="http://www.w3.org/2000/svg" width="20" height="20" viewBox="0 0 20 20">
  <path id="Combined_Shape" data-name="Combined Shape" d="M15.461,19.232l-.006-.1V17.392H13.637a.868.868,0,0,1-.106-1.733l.106-.006h1.818V13.913a.912.912,0,0,1,1.812-.1l.006.1v1.739h1.818a.868.868,0,0,1,.106,1.733l-.106.006H17.273V19.13a.912.912,0,0,1-1.812.1ZM.909,19.13a.9.9,0,0,1-.9-.768L0,18.261V14.81a3.484,3.484,0,0,1,2.46-3.292,22.973,22.973,0,0,1,3.25-.8,6.418,6.418,0,0,1-.446-.463A6.488,6.488,0,0,1,3.636,6.087V5.217A5.323,5.323,0,0,1,8.874,0l.217,0a5.346,5.346,0,0,1,5.454,5.217v.869a6.48,6.48,0,0,1-1.552,4.078,5.256,5.256,0,0,1-3.7,2l-.154,0h-.05a19.829,19.829,0,0,0-6.05.991,1.745,1.745,0,0,0-1.217,1.507l-.006.139v2.581H10a.9.9,0,0,1,.9.768l.006.1a.885.885,0,0,1-.8.864L10,19.13ZM8.932,1.742A3.542,3.542,0,0,0,5.454,5.217v.869A4.788,4.788,0,0,0,6.588,9.059a3.407,3.407,0,0,0,2.426,1.376h.081l.124,0A3.5,3.5,0,0,0,11.639,9a4.777,4.777,0,0,0,1.088-2.912V5.217A3.564,3.564,0,0,0,9.091,1.739Z" fill="#182a53"/>
</svg>
