<svg xmlns="http://www.w3.org/2000/svg" width="206" height="195.998" viewBox="0 0 206 195.998">
  <g id="group" transform="translate(3 -12.635)">
    <g id="Group_5338" data-name="Group 5338" transform="translate(0 15.635)">
      <g id="Group_5337" data-name="Group 5337">
        <path id="Path_57269" data-name="Path 57269" d="M53.291,50.839a21.3,21.3,0,0,0-16.149-35.2,21.3,21.3,0,0,0-16.149,35.2C7.105,56.653,0,66.665,0,79.907,0,85.721,1.292,89.6,4.2,92.18c4.844,4.2,15.18,2.261,18.732,1.615A92.8,92.8,0,0,1,37.142,92.5,92.746,92.746,0,0,1,51.353,93.8c7.751,1.292,14.211,2.261,18.733-1.615,2.907-2.261,4.2-6.46,4.2-12.273C74.284,66.665,67.179,56.653,53.291,50.839ZM37.142,22.417A14.857,14.857,0,1,1,22.285,37.274,15.028,15.028,0,0,1,37.142,22.417ZM65.887,87.335c-2.261,1.938-7.428.969-13.565,0-4.522-.646-9.689-1.615-15.18-1.615a72.944,72.944,0,0,0-15.18,1.615c-6.136,1.292-11.3,1.938-13.565,0C7.106,86.367,6.46,83.783,6.46,80.23c0-11.95,6.783-19.7,20.347-24.223a21.961,21.961,0,0,0,20.67,0Q67.825,62.79,67.825,80.23C67.825,83.783,67.179,86.367,65.887,87.335Z" transform="translate(0 -15.635)" fill="#465575" stroke="#465575" stroke-width="6"/>
      </g>
    </g>
    <g id="Group_5340" data-name="Group 5340" transform="translate(125.716 15.958)">
      <g id="Group_5339" data-name="Group 5339">
        <path id="Path_57270" data-name="Path 57270" d="M370.244,51.652a21.316,21.316,0,1,0-32.3,0c-13.888,5.814-20.993,15.826-20.993,29.068,0,5.814,1.292,9.689,4.2,12.273,4.844,4.2,15.18,2.261,18.732,1.615a96.775,96.775,0,0,1,14.211-1.292,92.745,92.745,0,0,1,14.211,1.292c7.751,1.292,14.211,2.261,18.732-1.615,2.907-2.261,4.2-6.46,4.2-12.273C391.237,67.478,384.132,57.466,370.244,51.652ZM354.095,22.907a14.857,14.857,0,1,1-14.857,14.857A15.028,15.028,0,0,1,354.095,22.907ZM382.84,87.825c-2.261,1.938-7.428.969-13.565,0-4.522-.646-9.689-1.615-15.18-1.615a72.944,72.944,0,0,0-15.18,1.615c-6.136.969-11.3,1.615-13.565,0-1.292-.969-1.938-3.553-1.938-7.105,0-11.95,6.783-19.7,20.347-24.223a21.961,21.961,0,0,0,20.67,0q20.347,6.783,20.347,24.223C384.777,84.272,384.132,86.856,382.84,87.825Z" transform="translate(-316.953 -16.448)" fill="#465575" stroke="#465575" stroke-width="6"/>
      </g>
    </g>
    <g id="Group_5342" data-name="Group 5342" transform="translate(62.858 126.337)">
      <g id="Group_5341" data-name="Group 5341">
        <path id="Path_57271" data-name="Path 57271" d="M211.767,323.906a21.316,21.316,0,1,0-32.3,0c-13.888,5.814-20.993,15.826-20.993,29.068,0,5.814,1.292,9.689,4.2,12.273,4.844,4.2,15.18,2.261,18.733,1.615a96.777,96.777,0,0,1,14.211-1.292,92.746,92.746,0,0,1,14.211,1.292c7.751,1.292,14.211,2.261,18.732-1.615,2.907-2.261,4.2-6.46,4.2-12.273C232.76,339.732,225.655,329.72,211.767,323.906Zm-16.148-28.745a14.857,14.857,0,1,1-14.857,14.857A15.028,15.028,0,0,1,195.618,295.161ZM224.363,360.4c-2.261,1.938-7.428.969-13.565,0-4.522-.646-9.689-1.615-15.18-1.615a72.915,72.915,0,0,0-15.18,1.615c-6.136.969-11.3,1.615-13.565,0-1.292-.969-1.938-3.553-1.938-7.105,0-11.95,6.783-19.7,20.347-24.223a21.961,21.961,0,0,0,20.67,0Q226.3,335.857,226.3,353.3C226.3,356.85,225.655,359.11,224.363,360.4Z" transform="translate(-158.476 -288.702)" fill="#465575" stroke="#465575" stroke-width="6"/>
      </g>
    </g>
    <g id="Group_5344" data-name="Group 5344" transform="translate(133.79 105.465)">
      <g id="Group_5343" data-name="Group 5343" transform="translate(0 0)">
        <path id="Path_57272" data-name="Path 57272" d="M374.412,227.749c-.969,19.238-15.18,36.958-37.142,46.324l3.23,4.557C364.4,268.5,379.58,249.013,380.872,228Z" transform="translate(-337.27 -227.749)" fill="#465575" stroke="#465575" stroke-width="6"/>
      </g>
    </g>
    <g id="Group_5346" data-name="Group 5346" transform="translate(63.181 19.187)">
      <g id="Group_5345" data-name="Group 5345">
        <path id="Path_57273" data-name="Path 57273" d="M192.325,24.574a63.609,63.609,0,0,0-33.036,9.366l2.873,5.814a54.385,54.385,0,0,1,29.876-8.72,56.038,56.038,0,0,1,30.163,8.72l2.873-5.814A62.617,62.617,0,0,0,192.325,24.574Z" transform="translate(-154.113 -24.574)" fill="#465575" stroke="#465575" stroke-width="6"/>
      </g>
    </g>
    <g id="Group_5348" data-name="Group 5348" transform="translate(22.608 105.465)">
      <g id="Group_5347" data-name="Group 5347" transform="translate(0 0.001)">
        <path id="Path_57274" data-name="Path 57274" d="M63.349,227.749l-6.46.255c1.292,22.464,18.087,42.631,43.6,52.586l2.907-4.85C79.82,266.806,64.64,248.426,63.349,227.749Z" transform="translate(-56.889 -227.749)" fill="#465575" stroke="#465575" stroke-width="6"/>
      </g>
    </g>
    <g id="Group_5350" data-name="Group 5350" transform="translate(96.77 87.871)">
      <g id="Group_5349" data-name="Group 5349">
        <rect id="Rectangle_1675" data-name="Rectangle 1675" width="6.46" height="6.46" fill="#465575" stroke="#465575" stroke-width="6"/>
      </g>
    </g>
    <g id="Group_5352" data-name="Group 5352" transform="translate(109.673 87.871)">
      <g id="Group_5351" data-name="Group 5351">
        <rect id="Rectangle_1676" data-name="Rectangle 1676" width="6.46" height="6.46" fill="#465575" stroke="#465575" stroke-width="6"/>
      </g>
    </g>
    <g id="Group_5354" data-name="Group 5354" transform="translate(83.868 87.871)">
      <g id="Group_5353" data-name="Group 5353">
        <rect id="Rectangle_1677" data-name="Rectangle 1677" width="6.46" height="6.46" fill="#465575" stroke="#465575" stroke-width="6"/>
      </g>
    </g>
  </g>
</svg>
