<svg xmlns="http://www.w3.org/2000/svg" width="200" height="200" viewBox="0 0 200 200">
  <g id="image" transform="translate(0 -0.492)">
    <path id="Path_70517" data-name="Path 70517" d="M146.093,293.677a17.621,17.621,0,0,1-4.73-.651L13.744,256.6C3.9,253.706-1.969,242.852.606,232.367l14.029-57.341a6.145,6.145,0,0,1,7.551-4.714,6.644,6.644,0,0,1,4.425,8.048L12.58,235.711a6.773,6.773,0,0,0,4.408,8.153l127.546,36.408a6.121,6.121,0,0,0,7.518-4.627l4.357-18.736a6.187,6.187,0,0,1,7.494-4.819,6.639,6.639,0,0,1,4.523,7.985L164.051,278.9C161.847,287.81,154.321,293.677,146.093,293.677Zm0,0" transform="translate(0 -93.185)" fill="#465575"/>
    <path id="Path_70518" data-name="Path 70518" d="M241.453,141.232H105.112A19.811,19.811,0,0,1,85.32,121.44V20.284A19.811,19.811,0,0,1,105.112.492H241.453a19.811,19.811,0,0,1,19.791,19.791V121.44A19.811,19.811,0,0,1,241.453,141.232ZM105.112,13.686a6.6,6.6,0,0,0-6.6,6.6V121.44a6.6,6.6,0,0,0,6.6,6.6H241.453a6.6,6.6,0,0,0,6.6-6.6V20.284a6.6,6.6,0,0,0-6.6-6.6Zm0,0" transform="translate(-61.244)" fill="#465575"/>
    <path id="Path_70519" data-name="Path 70519" d="M166.913,99.678A17.593,17.593,0,1,1,184.5,82.085,17.611,17.611,0,0,1,166.913,99.678Zm0-21.991a4.4,4.4,0,1,0,4.4,4.4A4.4,4.4,0,0,0,166.913,77.686Zm0,0" transform="translate(-91.638 -37.612)" fill="#465575"/>
    <path id="Path_70520" data-name="Path 70520" d="M92.348,198.662a6.6,6.6,0,0,1-4.661-11.268l39.758-39.758a15.437,15.437,0,0,1,21.814,0l10.635,10.635,32.668-39.214a15.391,15.391,0,0,1,11.753-5.55,14.146,14.146,0,0,1,11.795,5.41L259.9,170a6.6,6.6,0,0,1-10.02,8.594l-43.8-51.105a2.641,2.641,0,0,0-1.69-.784,2.21,2.21,0,0,0-1.688.8l-37.3,44.774a6.586,6.586,0,0,1-4.767,2.366,6.467,6.467,0,0,1-4.962-1.926l-15.744-15.745c-1.118-1.118-2.041-1.118-3.158,0l-39.758,39.75A6.552,6.552,0,0,1,92.348,198.662Zm0,0" transform="translate(-61.499 -63.615)" fill="#465575"/>
  </g>
</svg>
