<svg xmlns="http://www.w3.org/2000/svg" width="20.567" height="18.301" viewBox="0 0 20.567 18.301">
  <path id="Combined_Shape" data-name="Combined Shape" d="M11.707,17.73a5.9,5.9,0,0,0-4.826-.018l-.04.018a2.975,2.975,0,0,1-1.928.189,3.039,3.039,0,0,1-1.656-1.031,3.2,3.2,0,0,1-.733-1.845,3.229,3.229,0,0,1,.481-1.931L5.174,9.628a4.795,4.795,0,0,1,8.2,0l2.168,3.483a3.248,3.248,0,0,1-.252,3.776,3.048,3.048,0,0,1-1.657,1.031,2.972,2.972,0,0,1-1.927-.189Zm.472-1.1a1.864,1.864,0,0,0,.773.168A1.884,1.884,0,0,0,14.4,16.1a2,2,0,0,0,.156-2.34l-2.168-3.484a3.641,3.641,0,0,0-6.226,0L3.992,13.763a2,2,0,0,0,.157,2.34,1.859,1.859,0,0,0,2.2.534l.026-.012a7.041,7.041,0,0,1,5.809,0Zm3.479-4.56a2.844,2.844,0,0,1-.326-3.906,2.941,2.941,0,0,1,2.346-1.279,2.256,2.256,0,0,1,1.378.457,2.847,2.847,0,0,1,.327,3.908,2.941,2.941,0,0,1-2.345,1.279A2.252,2.252,0,0,1,15.658,12.065Zm.616-3.188a1.626,1.626,0,0,0,.081,2.218,1.127,1.127,0,0,0,.689.226,1.8,1.8,0,0,0,1.4-.794,1.628,1.628,0,0,0-.081-2.219,1.126,1.126,0,0,0-.689-.225A1.8,1.8,0,0,0,16.275,8.878ZM.213,7.811A2.823,2.823,0,0,1,1.539,4.135a2.212,2.212,0,0,1,.816-.157A2.413,2.413,0,0,1,3.543,4.3,3.121,3.121,0,0,1,4.916,5.947,3.23,3.23,0,0,1,4.97,8.116,2.409,2.409,0,0,1,3.589,9.624a2.167,2.167,0,0,1-.807.154A2.865,2.865,0,0,1,.213,7.811ZM1.96,5.261a1.614,1.614,0,0,0-.653,2.116A1.707,1.707,0,0,0,2.774,8.572a1.074,1.074,0,0,0,.4-.075,1.236,1.236,0,0,0,.695-.781,1.99,1.99,0,0,0-.042-1.335,1.922,1.922,0,0,0-.838-1.02,1.281,1.281,0,0,0-.631-.175A1.063,1.063,0,0,0,1.96,5.261ZM12.871,7.741a3.021,3.021,0,0,1-1.593-3.874,3.369,3.369,0,0,1,1.393-1.839,2.6,2.6,0,0,1,1.371-.409,2.361,2.361,0,0,1,.765.128,2.57,2.57,0,0,1,1.546,1.542A3.479,3.479,0,0,1,16.4,5.621a3.075,3.075,0,0,1-2.772,2.246A2.351,2.351,0,0,1,12.871,7.741Zm.408-4.68a2.172,2.172,0,0,0-.888,1.187,1.816,1.816,0,0,0,.85,2.347,1.22,1.22,0,0,0,.394.066A1.891,1.891,0,0,0,15.287,5.24a2.236,2.236,0,0,0-.022-1.5,1.4,1.4,0,0,0-.829-.849,1.2,1.2,0,0,0-.392-.065A1.461,1.461,0,0,0,13.279,3.061ZM4.86,3.447A3.227,3.227,0,0,1,7.8,0a3.227,3.227,0,0,1,2.938,3.447A3.227,3.227,0,0,1,7.8,6.894,3.227,3.227,0,0,1,4.86,3.447Zm1.173,0A2.048,2.048,0,0,0,7.8,5.687a2.048,2.048,0,0,0,1.765-2.24A2.048,2.048,0,0,0,7.8,1.207,2.048,2.048,0,0,0,6.033,3.447Z" transform="translate(0.252 0.15)" fill="#182a53" stroke="#182a53" stroke-miterlimit="10" stroke-width="0.3"/>
</svg>
