<svg xmlns="http://www.w3.org/2000/svg" width="202.089" height="186" viewBox="0 0 202.089 186">
  <g id="Icon_B-preview" data-name="Icon / B-preview" transform="translate(1.062 1)">
    <path id="Combined_Shape" data-name="Combined Shape" d="M117.073,181.24a57.864,57.864,0,0,0-48.259-.184l-.4.184a29.147,29.147,0,0,1-19.278,1.932,30.3,30.3,0,0,1-16.56-10.543,33.085,33.085,0,0,1-7.326-18.86,33.584,33.584,0,0,1,4.806-19.743l21.681-35.6c9-14.784,24.328-23.607,41-23.607s32,8.823,41,23.607l21.681,35.6a33.651,33.651,0,0,1,4.806,19.743,33.223,33.223,0,0,1-7.326,18.86,30.391,30.391,0,0,1-16.569,10.543,29.121,29.121,0,0,1-19.269-1.932Zm4.716-11.288a18.3,18.3,0,0,0,7.731,1.72A18.69,18.69,0,0,0,144,164.606a20.829,20.829,0,0,0,1.557-23.92l-21.681-35.613a36.01,36.01,0,0,0-62.263,0l-21.69,35.613a20.815,20.815,0,0,0,1.566,23.92,18.654,18.654,0,0,0,14.463,7.066,18.289,18.289,0,0,0,7.488-1.61l.261-.12a69.025,69.025,0,0,1,58.087.009Zm34.795-46.616c-11.16-8.685-12.618-26.6-3.258-39.928,5.76-8.188,14.526-13.073,23.464-13.073a22.242,22.242,0,0,1,13.779,4.674c11.16,8.7,12.627,26.625,3.267,39.946-5.76,8.188-14.526,13.073-23.455,13.073A22.2,22.2,0,0,1,156.584,123.335Zm6.165-32.586c-5.517,7.848-5.148,18.023.81,22.669a11.109,11.109,0,0,0,6.894,2.309c5.085,0,10.44-3.11,13.959-8.114,5.508-7.848,5.148-18.023-.81-22.678a11.1,11.1,0,0,0-6.894-2.3C171.624,82.634,166.278,85.744,162.749,90.749ZM2.132,79.847c-5.643-15.484.306-32.338,13.257-37.582a21.7,21.7,0,0,1,8.163-1.6,23.728,23.728,0,0,1,11.88,3.3A31.746,31.746,0,0,1,49.158,60.794a33.7,33.7,0,0,1,.54,22.172c-2.448,7.323-7.353,12.8-13.806,15.41a21.261,21.261,0,0,1-8.073,1.573C16.865,99.949,6.542,91.871,2.132,79.847ZM19.6,53.783c-6.93,2.806-9.855,12.512-6.525,21.629,2.637,7.194,8.658,12.208,14.661,12.208a10.532,10.532,0,0,0,3.951-.764,12.537,12.537,0,0,0,6.948-7.986,20.765,20.765,0,0,0-.423-13.644A19.557,19.557,0,0,0,29.834,54.8a12.594,12.594,0,0,0-6.309-1.785A10.429,10.429,0,0,0,19.6,53.783ZM128.711,79.129c-14.112-4.94-21.258-22.706-15.93-39.6a34.363,34.363,0,0,1,13.932-18.8,25.637,25.637,0,0,1,13.707-4.186,23.144,23.144,0,0,1,7.65,1.306c7.011,2.466,12.5,8.059,15.462,15.76A36.3,36.3,0,0,1,164,57.454c-4.266,13.524-15.669,22.963-27.721,22.963A23.048,23.048,0,0,1,128.711,79.129Zm4.077-47.84A22.158,22.158,0,0,0,123.9,43.424c-3.294,10.433.522,21.2,8.505,23.994a11.958,11.958,0,0,0,3.942.672c7.029,0,13.824-5.971,16.524-14.527a23.331,23.331,0,0,0-.216-15.318c-1.647-4.287-4.59-7.369-8.289-8.676a11.8,11.8,0,0,0-3.924-.662A14.386,14.386,0,0,0,132.788,31.289ZM48.6,35.236C48.6,15.806,61.776,0,77.977,0s29.377,15.806,29.377,35.236S94.177,70.472,77.977,70.472,48.6,54.666,48.6,35.236Zm11.727,0c0,12.622,7.92,22.9,17.649,22.9s17.649-10.276,17.649-22.9-7.92-22.9-17.649-22.9S60.327,22.614,60.327,35.236Z" transform="translate(0.014)" fill="#465575" stroke="#465575" stroke-miterlimit="10" stroke-width="2"/>
  </g>
</svg>
