<svg xmlns="http://www.w3.org/2000/svg" width="20" height="20" viewBox="0 0 20 20">
  <path id="Combined_Shape" data-name="Combined Shape" d="M7.5,17.5v-.437l-.232-.085c-.1-.04-.189-.076-.276-.114l-.219-.1-.308.309a2.5,2.5,0,0,1-3.416.112l-.12-.112a2.5,2.5,0,0,1,0-3.535l.307-.31-.1-.219c-.038-.087-.075-.177-.114-.276L2.936,12.5H2.5A2.5,2.5,0,0,1,0,10.147L0,10A2.5,2.5,0,0,1,2.5,7.5h.436l.086-.231c.04-.1.078-.192.114-.275l.1-.22L2.93,6.465a2.5,2.5,0,0,1-.112-3.416l.112-.12a2.5,2.5,0,0,1,3.535,0l.308.307.22-.1c.084-.036.174-.074.275-.114L7.5,2.936V2.5A2.5,2.5,0,0,1,9.853,0L10,0a2.5,2.5,0,0,1,2.5,2.5v.436l.231.086c.1.04.189.076.276.114l.219.1.31-.307a2.5,2.5,0,0,1,3.415-.112l.121.112a2.5,2.5,0,0,1,0,3.535l-.309.308.1.22c.046.106.083.194.114.275l.085.231H17.5A2.5,2.5,0,0,1,20,9.853L20,10a2.5,2.5,0,0,1-2.5,2.5h-.437l-.085.232c-.04.1-.076.189-.114.276l-.1.218.309.31a2.5,2.5,0,0,1,.112,3.415l-.112.121a2.5,2.5,0,0,1-3.535,0l-.31-.309-.219.1c-.076.032-.175.076-.276.114l-.231.085V17.5A2.5,2.5,0,0,1,10.147,20L10,20A2.5,2.5,0,0,1,7.5,17.5Zm-.457-2.479a5.791,5.791,0,0,0,1.5.62.834.834,0,0,1,.625.807V17.5a.833.833,0,0,0,1.667,0V16.448a.834.834,0,0,1,.625-.807,5.778,5.778,0,0,0,1.5-.621.834.834,0,0,1,1.012.129l.743.743a.833.833,0,0,0,1.178-1.178l-.743-.743a.832.832,0,0,1-.128-1.012,5.771,5.771,0,0,0,.62-1.5.834.834,0,0,1,.807-.625H17.5a.833.833,0,0,0,0-1.667H16.448a.834.834,0,0,1-.807-.625,5.778,5.778,0,0,0-.621-1.5.835.835,0,0,1,.129-1.013l.743-.743a.833.833,0,1,0-1.178-1.178l-.743.743a.834.834,0,0,1-1.012.129,5.794,5.794,0,0,0-1.5-.621.834.834,0,0,1-.625-.807V2.5a.833.833,0,0,0-1.667,0V3.551a.834.834,0,0,1-.625.807,5.794,5.794,0,0,0-1.5.621.834.834,0,0,1-1.013-.129l-.743-.743A.833.833,0,0,0,4.108,5.286l.743.743A.835.835,0,0,1,4.98,7.042a5.794,5.794,0,0,0-.621,1.5.834.834,0,0,1-.807.625H2.5a.833.833,0,0,0,0,1.667H3.551a.834.834,0,0,1,.807.625,5.794,5.794,0,0,0,.621,1.5.834.834,0,0,1-.129,1.012l-.743.743a.833.833,0,0,0,1.178,1.178l.743-.743a.833.833,0,0,1,1.013-.128ZM6.666,10A3.333,3.333,0,1,1,10,13.333,3.338,3.338,0,0,1,6.666,10Zm1.667,0A1.667,1.667,0,1,0,10,8.333,1.668,1.668,0,0,0,8.333,10Z" fill="#182a53"/>
</svg>
