<svg xmlns="http://www.w3.org/2000/svg" width="200.2" height="200.2" viewBox="0 0 200.2 200.2">
  <g id="Page-1" transform="translate(0.1 0.1)">
    <path id="Combined-Shape" d="M95.31,7.88a7.5,7.5,0,0,1,0,15.009H30.019A15.027,15.027,0,0,0,15.009,37.9V169.981a15.027,15.027,0,0,0,15.009,15.009H162.1a15.027,15.027,0,0,0,15.009-15.009V105.066a7.5,7.5,0,0,1,15.009,0v64.916A30.052,30.052,0,0,1,162.1,200H30.019A30.052,30.052,0,0,1,0,169.981V37.9A30.052,30.052,0,0,1,30.019,7.88ZM157.9,0a42.1,42.1,0,1,1-31.424,70.092h0L91.754,92.186a33.28,33.28,0,0,1,.651,21.724h0L122.982,130.9a24.437,24.437,0,1,1-6.555,11.784h0L85.84,125.689A33.265,33.265,0,1,1,84.5,80.819h0l34.717-22.092A42.1,42.1,0,0,1,157.9,0ZM140.216,137.247a10.938,10.938,0,1,0,10.938,10.938A10.95,10.95,0,0,0,140.216,137.247ZM60.655,84.206a19.778,19.778,0,1,0,19.778,19.778A19.8,19.8,0,0,0,60.655,84.206ZM157.9,13.485A28.618,28.618,0,1,0,186.515,42.1,28.651,28.651,0,0,0,157.9,13.485Z" fill="#465575" stroke="#445279" stroke-width="0.2"/>
  </g>
</svg>
