<svg xmlns="http://www.w3.org/2000/svg" width="200" height="170" viewBox="0 0 200 170">
  <g id="Icon_B-preview_Copy" data-name="Icon / B-preview Copy" transform="translate(0.831 -0.5)">
    <path id="Combined_Shape" data-name="Combined Shape" d="M158.339,170a8.512,8.512,0,0,1-.972-16.945l.972-.057h24.993V124.76l-31.176-12.747a16.98,16.98,0,0,1-10.431-14.382l-.054-1.387V88.787a8.513,8.513,0,0,1,4.185-7.373,25.407,25.407,0,0,0,12.42-20.224l.063-1.683v-17a25.62,25.62,0,0,0-12.5-22.089,24.6,24.6,0,0,0-25,0,8.251,8.251,0,0,1-11.385-3.108A8.6,8.6,0,0,1,112.5,5.69a40.964,40.964,0,0,1,41.67.01,42.627,42.627,0,0,1,20.79,34.836L175,42.5V59.526a42.619,42.619,0,0,1-16.074,33.363l-.594.449.009,2.888,31.176,12.747a16.972,16.972,0,0,1,10.431,14.4l.054,1.377V161.5a8.444,8.444,0,0,1-7.362,8.444l-.972.057Zm-150,0A8.427,8.427,0,0,1,0,161.5V133.233A16.888,16.888,0,0,1,10.476,117.5L41.67,104.746v-2.907l-.594-.44A42.6,42.6,0,0,1,25.047,69.978L25,68.008v-17c0-23.437,18.693-42.5,41.661-42.5s41.67,19.058,41.67,42.5V68.027A42.384,42.384,0,0,1,92.26,101.4l-.6.44.009,2.888,31.185,12.747a16.934,16.934,0,0,1,10.485,15.787V161.5A8.427,8.427,0,0,1,125,170ZM41.67,51.006V67.989A25.5,25.5,0,0,0,54.145,89.915a8.544,8.544,0,0,1,4.185,7.373v7.468a16.9,16.9,0,0,1-10.467,15.768L16.668,133.271V153h100V133.261L85.483,120.515A16.945,16.945,0,0,1,75,104.746V97.288a8.567,8.567,0,0,1,4.185-7.373A25.476,25.476,0,0,0,91.666,68.008v-17c0-14.057-11.214-25.493-25-25.493S41.67,36.949,41.67,51.006Z" transform="translate(-0.831 0.5)" fill="#465575"/>
  </g>
</svg>
