<svg xmlns="http://www.w3.org/2000/svg" width="18" height="20" viewBox="0 0 18 20">
  <path id="Combined_Shape" data-name="Combined Shape" d="M.964,20A.975.975,0,0,1,0,19.016V4.262a.975.975,0,0,1,.964-.984H13.821a.975.975,0,0,1,.965.984V19.016a.975.975,0,0,1-.965.984Zm.964-1.967h10.93V5.245H1.928Zm14.15-.541-.006-.114V1.967H3.375A.972.972,0,0,1,2.417,1.1L2.411.984A.977.977,0,0,1,3.263.006L3.375,0H17.036a.972.972,0,0,1,.958.868L18,.984V17.377a.964.964,0,0,1-1.922.114ZM4.179,15.9a.985.985,0,0,1-.112-1.96l.112-.006H7.393a.985.985,0,0,1,.113,1.96l-.113.006Zm0-3.278a.985.985,0,0,1-.112-1.961l.112-.006h6.429a.985.985,0,0,1,.113,1.96l-.113.007Zm0-3.279a.985.985,0,0,1-.112-1.961l.112-.006h6.429a.985.985,0,0,1,.113,1.96l-.113.007Z" fill="#20ace2"/>
</svg>
