<svg xmlns="http://www.w3.org/2000/svg" width="16" height="20" viewBox="0 0 16 20">
  <path id="gif-2" d="M12.913,14.8v1.25H14.8a.781.781,0,1,1,0,1.563H12.913v1.6a.788.788,0,0,1-1.577,0V14.8a1.964,1.964,0,0,1,1.971-1.953h1.5a.781.781,0,1,1,0,1.563h-1.5A.393.393,0,0,0,12.913,14.8ZM15.807,3.716,12.75.686A2.361,2.361,0,0,0,11.077,0H3.654A3.143,3.143,0,0,0,.5,3.125v7.422a.788.788,0,0,0,1.577,0V3.125A1.572,1.572,0,0,1,3.654,1.563h7.424a.787.787,0,0,1,.557.229l3.058,3.03a.773.773,0,0,1,.231.552v5.173a.788.788,0,0,0,1.577,0V5.374A2.318,2.318,0,0,0,15.807,3.716ZM5.817,16.094H4.438a.781.781,0,1,0,0,1.563h.551a1.242,1.242,0,0,1-1.182.781,1.257,1.257,0,0,1-1.261-1.25V15.7a1.264,1.264,0,0,1,2.34-.648.792.792,0,0,0,1.083.261.777.777,0,0,0,.263-1.073A2.843,2.843,0,0,0,.969,15.7v1.484A2.829,2.829,0,0,0,3.807,20a2.894,2.894,0,0,0,1.8-.625,2.755,2.755,0,0,0,.98-1.605.78.78,0,0,0,.015-.152v-.742A.785.785,0,0,0,5.817,16.094Zm3.154-3.242a.785.785,0,0,0-.788.781v5.586a.788.788,0,0,0,1.577,0V13.633A.785.785,0,0,0,8.971,12.852Zm0,0" transform="translate(-0.5)" fill="#fa7f1a"/>
</svg>
