<svg xmlns="http://www.w3.org/2000/svg" width="20.072" height="20.001" viewBox="0 0 20.072 20.001">
  <g id="palette" transform="translate(0 -1.397)">
    <path id="Path_7679" data-name="Path 7679" d="M1,10.787A9.672,9.672,0,0,1,4.866,2.924c.823-.612,2.221-.786,2.715,0,.823,1.048-.658,2.621,0,3.495,1.645,2.1,5.018-2.009,9.049,0,2.879,1.573,2.468,5.5,2.139,6.99a9.2,9.2,0,0,1-8.72,6.99A9.315,9.315,0,0,1,1,10.787Z" transform="translate(0 0)" fill="none" stroke="#f47d8a" stroke-linecap="round" stroke-linejoin="round" stroke-miterlimit="10" stroke-width="2"/>
    <circle id="Ellipse_17" data-name="Ellipse 17" cx="2" cy="2" r="2" transform="translate(11.961 8.808)" fill="none" stroke="#f47d8a" stroke-linecap="round" stroke-linejoin="round" stroke-miterlimit="10" stroke-width="2"/>
    <circle id="Ellipse_18" data-name="Ellipse 18" cx="1" cy="1" r="1" transform="translate(4.429 9.797)" fill="none" stroke="#f47d8a" stroke-linecap="round" stroke-linejoin="round" stroke-miterlimit="10" stroke-width="2"/>
    <circle id="Ellipse_19" data-name="Ellipse 19" cx="1" cy="1" r="1" transform="translate(5.426 14.097)" fill="none" stroke="#f47d8a" stroke-linecap="round" stroke-linejoin="round" stroke-miterlimit="10" stroke-width="2"/>
    <circle id="Ellipse_20" data-name="Ellipse 20" cx="1" cy="1" r="1" transform="translate(9.852 14.969)" fill="none" stroke="#f47d8a" stroke-linecap="round" stroke-linejoin="round" stroke-miterlimit="10" stroke-width="2"/>
  </g>
</svg>
