<svg xmlns="http://www.w3.org/2000/svg" width="20" height="16" viewBox="0 0 20 16">
  <path id="Combined_Shape" data-name="Combined Shape" d="M.833,16A.818.818,0,0,1,0,15.2v-.8s0,0,0,0V.8A.818.818,0,0,1,.833,0H19.166A.818.818,0,0,1,20,.8V11.993c0,.005,0,.01,0,.016V15.2a.818.818,0,0,1-.833.8Zm17.5-1.6V12.3L14.16,7.621l-5.2,5.706a.858.858,0,0,1-1.14.1l-.076-.065-2.688-2.58L1.918,14.4ZM1.667,12.191l2.693-3.1a.857.857,0,0,1,1.152-.12l.077.066,2.7,2.595L13.54,5.873a.857.857,0,0,1,1.185-.068l.075.074,3.533,3.958V1.6H1.667ZM5,4.8A2.454,2.454,0,0,1,7.5,2.4,2.455,2.455,0,0,1,10,4.8,2.455,2.455,0,0,1,7.5,7.2,2.454,2.454,0,0,1,5,4.8Zm1.667,0A.834.834,0,1,0,7.5,4,.818.818,0,0,0,6.667,4.8Z" fill="#20ace2"/>
</svg>
