<svg id="pin-3" xmlns="http://www.w3.org/2000/svg" width="16" height="20" viewBox="0 0 16 20">
  <path id="Combined_Shape" data-name="Combined Shape" d="M7.366,19.74,7.232,19.6l-.391-.4-.468-.5-.349-.382c-.9-1-1.73-1.987-2.463-2.948C1.165,12.235,0,9.767,0,7.826A7.673,7.673,0,0,1,2.376,2.191,8.122,8.122,0,0,1,8,0a8.118,8.118,0,0,1,5.623,2.191A7.67,7.67,0,0,1,16,7.826a9.389,9.389,0,0,1-1.5,4.49A28.614,28.614,0,0,1,12.263,15.6c-.754.973-1.592,1.963-2.49,2.942l-.035.038-.184.2-.411.437-.191.2-.319.324a.9.9,0,0,1-1.267,0ZM3.619,3.437A5.973,5.973,0,0,0,1.778,7.826c0,1.508,1.109,3.758,3.208,6.506.712.931,1.509,1.885,2.37,2.835l.144.158.027.03.473.51.45-.483c.867-.945,1.674-1.9,2.4-2.832a27.175,27.175,0,0,0,2.1-3.083,7.937,7.937,0,0,0,1.274-3.641,5.972,5.972,0,0,0-1.841-4.389A6.321,6.321,0,0,0,8,1.739,6.32,6.32,0,0,0,3.619,3.437Zm.825,4.389a3.556,3.556,0,0,1,7.111,0,3.556,3.556,0,0,1-7.111,0Zm1.778,0A1.778,1.778,0,1,0,8,6.087,1.761,1.761,0,0,0,6.222,7.826Z" fill="#fa7f1a"/>
</svg>
