<svg id="smile_copy" data-name="smile copy" xmlns="http://www.w3.org/2000/svg" width="20" height="20" viewBox="0 0 20 20">
  <path id="Combined_Shape" data-name="Combined Shape" d="M0,10A10,10,0,1,1,10,20,10.011,10.011,0,0,1,0,10Zm1.667,0A8.333,8.333,0,1,0,10,1.667,8.343,8.343,0,0,0,1.667,10Zm5,2.5a.833.833,0,0,1,1.667,0,1.667,1.667,0,0,0,3.329.124l0-.124a.833.833,0,0,1,1.667,0,3.334,3.334,0,1,1-6.667,0ZM12.5,8.75A1.25,1.25,0,1,1,13.75,10,1.25,1.25,0,0,1,12.5,8.75ZM5,8.75A1.25,1.25,0,1,1,6.25,10,1.249,1.249,0,0,1,5,8.75Z" fill="#f47d8a"/>
</svg>
