<svg id="video" xmlns="http://www.w3.org/2000/svg" width="20" height="16" viewBox="0 0 20 16">
  <path id="Combined_Shape" data-name="Combined Shape" d="M2.5,16A2.59,2.59,0,0,1,0,13.333V2.667A2.59,2.59,0,0,1,2.5,0h9.167a2.59,2.59,0,0,1,2.5,2.667V4.874l4.672-2.136a.832.832,0,0,1,1.156.713l.005.1v8.888a.845.845,0,0,1-1.069.853l-.092-.036-4.672-2.136v2.208A2.59,2.59,0,0,1,11.667,16ZM1.667,2.667V13.333a.863.863,0,0,0,.833.888h9.167a.863.863,0,0,0,.833-.888V9.8c0-.016,0-.033,0-.049V6.236q0-.014,0-.028V2.667a.863.863,0,0,0-.833-.889H2.5A.863.863,0,0,0,1.667,2.667ZM18.333,11.1V4.9l-4.166,1.9V9.191Z" fill="#f596a0"/>
</svg>
