<svg xmlns="http://www.w3.org/2000/svg" width="13.333" height="13.333" viewBox="0 0 13.333 13.333">
  <path id="Combined_Shape" data-name="Combined Shape" d="M10.307,12.821l0-.068v-1.16H9.091a.579.579,0,0,1-.071-1.155l.071,0H10.3V9.275a.608.608,0,0,1,1.208-.068l0,.068v1.159h1.211A.579.579,0,0,1,12.8,11.59l-.071,0H11.516v1.16a.609.609,0,0,1-1.209.068Zm-9.7-.068a.6.6,0,0,1-.6-.512l0-.068v-2.3a2.324,2.324,0,0,1,1.64-2.2,15.289,15.289,0,0,1,2.166-.531,4.271,4.271,0,0,1-.3-.309A4.324,4.324,0,0,1,2.425,4.058v-.58A3.55,3.55,0,0,1,5.917,0l.144,0A3.565,3.565,0,0,1,9.7,3.479v.58A4.109,4.109,0,0,1,6.2,8.113l-.1,0H6.061a13.211,13.211,0,0,0-4.033.661,1.162,1.162,0,0,0-.812,1l0,.093v1.72H6.666a.6.6,0,0,1,.6.512l0,.068a.589.589,0,0,1-.536.575l-.071,0ZM5.955,1.162A2.36,2.36,0,0,0,3.637,3.479v.58A2.936,2.936,0,0,0,6,6.956h.072l.073,0a2.951,2.951,0,0,0,2.339-2.9v-.58A2.377,2.377,0,0,0,6.061,1.159Z" fill="#04bd4f"/>
</svg>
