<svg xmlns="http://www.w3.org/2000/svg" width="24" height="18" viewBox="0 0 24 18">
  <g id="Icon_B-preview_Copy" data-name="Icon / B-preview Copy" transform="translate(0 -0.18)">
    <path id="Combined_Shape" data-name="Combined Shape" d="M19,18a.954.954,0,0,1-1-.9.939.939,0,0,1,.883-.894L19,16.2h3V13.21l-3.741-1.35a1.833,1.833,0,0,1-1.252-1.523L17,10.191V9.4a.886.886,0,0,1,.5-.781,2.671,2.671,0,0,0,1.49-2.141L19,6.3V4.5a2.666,2.666,0,0,0-1.5-2.339,3.294,3.294,0,0,0-3,0,1.064,1.064,0,0,1-1.366-.329A.853.853,0,0,1,13.5.6a5.485,5.485,0,0,1,5,0A4.464,4.464,0,0,1,21,4.292L21,4.5V6.3a4.339,4.339,0,0,1-1.929,3.533L19,9.883v.306l3.741,1.35a1.831,1.831,0,0,1,1.252,1.525l.006.146V17.1a.94.94,0,0,1-.883.894L23,18ZM1,18a.955.955,0,0,1-1-.9V14.107a1.8,1.8,0,0,1,1.257-1.666L5,11.091v-.308l-.071-.047A4.362,4.362,0,0,1,3.006,7.409L3,7.2V5.4A4.775,4.775,0,0,1,8,.9a4.775,4.775,0,0,1,5,4.5V7.2a4.314,4.314,0,0,1-1.929,3.534L11,10.783v.306l3.742,1.35A1.805,1.805,0,0,1,16,14.11V17.1a.955.955,0,0,1-1,.9ZM5,5.4V7.2A2.654,2.654,0,0,0,6.5,9.52.889.889,0,0,1,7,10.3v.791a1.8,1.8,0,0,1-1.256,1.67L2,14.111V16.2H14V14.11l-3.742-1.35A1.807,1.807,0,0,1,9,11.091V10.3a.892.892,0,0,1,.5-.781A2.653,2.653,0,0,0,11,7.2V5.4A2.865,2.865,0,0,0,8,2.7,2.865,2.865,0,0,0,5,5.4Z" transform="translate(0 0.18)" fill="#fff"/>
  </g>
</svg>
