<svg xmlns="http://www.w3.org/2000/svg" width="26.871" height="26.847" viewBox="0 0 26.871 26.847">
  <g id="dog-house" transform="translate(-0.212 511.606)">
    <path id="Path_57270" data-name="Path 57270" d="M13.018-511.548a4.069,4.069,0,0,0-.735.268c-.378.189-.6.4-5.279,5.043-6.7,6.65-6.671,6.613-6.75,6.9a1.044,1.044,0,0,0,.84,1.345,1.1,1.1,0,0,0,.94-.326l.263-.236.016,5.163c.021,5.6,0,5.232.3,6.04a4.434,4.434,0,0,0,2.3,2.3c.777.294.73.289,3.582.289h2.653l.2-.126a1.381,1.381,0,0,0,.341-.336l.142-.215.026-3.913.026-3.918.137-.294a1.8,1.8,0,0,1,.877-.9,1.354,1.354,0,0,1,.8-.173,1.354,1.354,0,0,1,.8.173,1.8,1.8,0,0,1,.877.9l.137.294.026,3.913.026,3.913.126.2a1.381,1.381,0,0,0,.336.341l.215.142h2.6a15.085,15.085,0,0,0,2.92-.089,4.153,4.153,0,0,0,1.3-.562,4.1,4.1,0,0,0,1.9-3.367c.005-.436-.011-.525-.121-.7a1.382,1.382,0,0,0-.336-.341.8.8,0,0,0-.562-.142.8.8,0,0,0-.562.142c-.32.21-.431.431-.488.972a2.125,2.125,0,0,1-1.25,1.817l-.352.168-1.823.016-1.823.016-.021-3.351c-.016-3.64-.011-3.535-.32-4.223a4.2,4.2,0,0,0-2.164-2.091A3.965,3.965,0,0,0,9.845-493.6a25.293,25.293,0,0,0-.084,3.587v3.183l-1.875-.016-1.88-.016-.352-.168a2.019,2.019,0,0,1-1.03-1l-.194-.4-.016-6.119L4.4-500.675l4.37-4.37c4.607-4.6,4.475-4.48,4.922-4.48.415,0,.352-.058,4.853,4.449l4.318,4.328.026,3.451.026,3.451.126.2a1.381,1.381,0,0,0,.336.341.817.817,0,0,0,.557.142.938.938,0,0,0,.888-.462l.142-.215.016-2.353L25-498.553l.263.236a1.1,1.1,0,0,0,.94.326,1.041,1.041,0,0,0,.84-1.339c-.058-.21-.594-.767-5.725-5.935-6.046-6.093-5.92-5.972-6.671-6.209A3.717,3.717,0,0,0,13.018-511.548Z" transform="translate(0 0)" fill="#fff"/>
    <path id="Path_57271" data-name="Path 57271" d="M188.885-317.676a1.193,1.193,0,0,0-.646.688,1.086,1.086,0,0,0,.462,1.2l.2.126h5.883l.2-.126a1.382,1.382,0,0,0,.341-.336.8.8,0,0,0,.142-.562.8.8,0,0,0-.142-.562,1.382,1.382,0,0,0-.341-.336l-.2-.126-2.863-.01C190.208-317.723,188.99-317.707,188.885-317.676Z" transform="translate(-178.115 -183.703)" fill="#fff"/>
  </g>
</svg>
