<svg xmlns="http://www.w3.org/2000/svg" width="22" height="22" viewBox="0 0 22 22">
  <path id="Union_1" data-name="Union 1" d="M16.8,21.355c0-.149-.085-.236-.4-.481a1.856,1.856,0,0,1-.892-1.5,1.8,1.8,0,0,1,.9-1.482c.326-.244.387-.316.387-.451s-.062-.208-.387-.451a1.8,1.8,0,0,1-.9-1.483A1.548,1.548,0,0,1,15.6,15a4.879,4.879,0,0,1-1.707-1.715,5.039,5.039,0,0,1-2.368.906,2.221,2.221,0,0,1-.778.866c-.326.244-.387.316-.387.451s.061.208.387.452a1.669,1.669,0,0,1,0,2.965c-.326.244-.387.315-.387.451s.084.236.4.481a1.857,1.857,0,0,1,.892,1.5.645.645,0,1,1-1.289,0c0-.149-.085-.236-.4-.481a1.857,1.857,0,0,1-.892-1.5,1.8,1.8,0,0,1,.9-1.482c.326-.244.387-.316.387-.451s-.062-.208-.387-.451a1.8,1.8,0,0,1-.9-1.483,1.728,1.728,0,0,1,.818-1.418,5.117,5.117,0,0,1-1.773-.8A4.436,4.436,0,0,1,5.2,15.451a.32.32,0,0,0,0,.061c0,.136.061.208.387.452a1.669,1.669,0,0,1,0,2.965c-.326.244-.387.315-.387.451s.084.236.4.481a1.857,1.857,0,0,1,.892,1.5.645.645,0,1,1-1.289,0c0-.149-.085-.236-.4-.481a1.856,1.856,0,0,1-.891-1.5,1.8,1.8,0,0,1,.9-1.482c.325-.244.387-.316.387-.451s-.062-.208-.387-.451a1.8,1.8,0,0,1-.9-1.483c0-.02,0-.039,0-.058C1.7,15.054,0,12.631,0,9.711c0-3.2,2.043-5.8,4.554-5.8a3.6,3.6,0,0,1,1.191.2A5.866,5.866,0,0,1,11,0a5.866,5.866,0,0,1,5.254,4.112,3.6,3.6,0,0,1,1.192-.2c2.511,0,4.555,2.6,4.555,5.8s-2.043,5.8-4.555,5.8a3.544,3.544,0,0,1-.64-.059.313.313,0,0,0,0,.059c0,.136.061.208.387.452a1.669,1.669,0,0,1,0,2.965c-.326.244-.387.315-.387.451s.084.236.4.481a1.857,1.857,0,0,1,.892,1.5.645.645,0,0,1-1.289,0Zm-.183-16A8.682,8.682,0,0,1,16.8,7.133a7.845,7.845,0,0,1-1.928,5.283,3.07,3.07,0,0,0,2.573,1.807c2.008,0,3.266-2.392,3.266-4.512,0-2.15-1.277-4.512-3.266-4.512A2.339,2.339,0,0,0,16.617,5.352ZM1.289,9.711c0,2.155,1.28,4.512,3.265,4.512a3.069,3.069,0,0,0,2.572-1.807A7.845,7.845,0,0,1,5.2,7.133a8.666,8.666,0,0,1,.183-1.781A2.336,2.336,0,0,0,4.554,5.2C2.559,5.2,1.289,7.57,1.289,9.711Zm5.2-2.578c0,2.8,1.754,5.8,4.511,5.8,2.245,0,4.512-2.316,4.512-5.8,0-2.95-1.849-5.844-4.512-5.844C8.3,1.289,6.488,4.236,6.488,7.133Zm5.73,2.658L11,9.158l-1.219.633a.645.645,0,0,1-.933-.678l.225-1.354L8.1,6.795a.644.644,0,0,1,.356-1.1l1.358-.2.614-1.228a.645.645,0,0,1,1.153,0l.614,1.228,1.358.2a.644.644,0,0,1,.356,1.1l-.978.964.225,1.354a.645.645,0,0,1-.933.678ZM11.3,7.859l.371.193L11.6,7.64a.646.646,0,0,1,.184-.565l.3-.293-.414-.063a.644.644,0,0,1-.48-.349L11,6l-.187.375a.644.644,0,0,1-.48.349l-.414.063.3.293a.644.644,0,0,1,.184.565l-.069.413.371-.193a.646.646,0,0,1,.594,0Z" fill="#fff"/>
</svg>
