<svg xmlns="http://www.w3.org/2000/svg" width="32.005" height="18.604" viewBox="0 0 32.005 18.604">
  <g id="Followers" transform="translate(-2.372 -103.394)">
    <g id="Group_5025" data-name="Group 5025" transform="translate(24.85 105.209)">
      <g id="Group_5024" data-name="Group 5024">
        <path id="Path_8733" data-name="Path 8733" d="M334.279,100.456a3.706,3.706,0,1,0,3.747,3.706,3.706,3.706,0,0,0-3.747-3.706Zm0,5.765a2.059,2.059,0,1,1,2.082-2.059,2.059,2.059,0,0,1-2.082,2.059Z" transform="translate(-330.532 -100.765)" fill="#fff" stroke="#fff" stroke-width="0.4"/>
      </g>
    </g>
    <g id="Group_5027" data-name="Group 5027" transform="translate(23.157 110.946)">
      <g id="Group_5026" data-name="Group 5026">
        <path id="Path_8734" data-name="Path 8734" d="M303.028,213.333a5.58,5.58,0,0,0-5.414,4.16.823.823,0,0,0,.6,1,.832.832,0,0,0,1.013-.593,3.923,3.923,0,0,1,7.715.948v1.235a.833.833,0,0,0,1.665,0v-1.235a5.555,5.555,0,0,0-5.579-5.515Z" transform="translate(-297.587 -213.333)" fill="#fff" stroke="#fff" stroke-width="0.4"/>
      </g>
    </g>
    <g id="Group_5029" data-name="Group 5029" transform="translate(4.282 104.902)">
      <g id="Group_5028" data-name="Group 5028">
        <path id="Path_8735" data-name="Path 8735" d="M39.144,100.456a3.46,3.46,0,1,0,3.5,3.459,3.46,3.46,0,0,0-3.5-3.459Zm0,5.381a1.922,1.922,0,1,1,1.943-1.922,1.922,1.922,0,0,1-1.943,1.922Z" transform="translate(-35.646 -100.456)" fill="#fff" stroke="#fff" stroke-width="0.4"/>
      </g>
    </g>
    <g id="Group_5031" data-name="Group 5031" transform="translate(2.572 110.564)">
      <g id="Group_5030" data-name="Group 5030">
        <path id="Path_8736" data-name="Path 8736" d="M10.236,217.192A5.207,5.207,0,0,0,0,218.485v1.153a.773.773,0,0,0,.777.769.773.773,0,0,0,.777-.769v-1.153a3.651,3.651,0,0,1,7.176-.911.778.778,0,0,0,.946.553.768.768,0,0,0,.56-.935Z" transform="translate(0 -213.334)" fill="#fff" stroke="#fff" stroke-width="0.4"/>
      </g>
    </g>
    <g id="Group_5021" data-name="Group 5021" transform="translate(12.677 103.397)">
      <g id="Group_5020" data-name="Group 5020">
        <path id="Path_8731" data-name="Path 8731" d="M188.329,149.6a5.183,5.183,0,1,0,5.24,5.182A5.183,5.183,0,0,0,188.329,149.6Zm0,8.062a2.879,2.879,0,1,1,2.911-2.879,2.879,2.879,0,0,1-2.911,2.879Z" transform="translate(-183.089 -149.603)" fill="#fff"/>
      </g>
    </g>
    <g id="Group_5023" data-name="Group 5023" transform="translate(10.115 111.42)">
      <g id="Group_5022" data-name="Group 5022">
        <path id="Path_8732" data-name="Path 8732" d="M155.245,262.481a7.768,7.768,0,0,0-7.8,7.716v1.728a1.165,1.165,0,0,0,2.329,0V270.2a5.474,5.474,0,1,1,10.947,0v1.728a1.165,1.165,0,0,0,2.329,0V270.2a7.769,7.769,0,0,0-7.805-7.719Z" transform="translate(-147.443 -262.481)" fill="#fff"/>
      </g>
    </g>
  </g>
</svg>
