<svg xmlns="http://www.w3.org/2000/svg" width="21.931" height="19.644" viewBox="0 0 21.931 19.644">
  <g id="logout" transform="translate(-6.07 479.887)">
    <path id="Path_57272" data-name="Path 57272" d="M14.6-479.822a9.9,9.9,0,0,0-6.387,3.6A9.9,9.9,0,0,0,6.2-471.776a11.971,11.971,0,0,0-.066,2.961,9.861,9.861,0,0,0,2.079,4.9,9.872,9.872,0,0,0,6.62,3.628,12.779,12.779,0,0,0,2.751-.083,9.855,9.855,0,0,0,5.018-2.5,1.575,1.575,0,0,0,.684-1.281,1.058,1.058,0,0,0-.123-.579,1.4,1.4,0,0,0-1.3-.8c-.408,0-.676.14-1.184.605a7.116,7.116,0,0,1-3.365,1.746,5.459,5.459,0,0,1-1.417.1,4.829,4.829,0,0,1-1.513-.123,6.62,6.62,0,0,1-1.623-.579,6.683,6.683,0,0,1-1.842-1.356A6.85,6.85,0,0,1,9-468.648a5.457,5.457,0,0,1-.1-1.417,5.457,5.457,0,0,1,.1-1.417,7.087,7.087,0,0,1,5.479-5.479,5.456,5.456,0,0,1,1.417-.1,5.456,5.456,0,0,1,1.417.1,7.116,7.116,0,0,1,3.365,1.746c.509.465.776.605,1.184.605a1.4,1.4,0,0,0,1.3-.8,1.058,1.058,0,0,0,.123-.579c0-.605-.268-.983-1.25-1.768a9.863,9.863,0,0,0-5.023-2.092A14.272,14.272,0,0,0,14.6-479.822Z" transform="translate(0 0)" fill="#fff"/>
    <path id="Path_57273" data-name="Path 57273" d="M207.321-350.529a1.448,1.448,0,0,0-.939.956,1.941,1.941,0,0,0-.031.483,1.391,1.391,0,0,0,.5.987l.246.241-3.852.022-3.852.022-.219.11a1.544,1.544,0,0,0-.68.68,1.58,1.58,0,0,0,0,1.184,1.544,1.544,0,0,0,.68.68l.219.11,3.852.022,3.852.022-.246.241a1.391,1.391,0,0,0-.5.987,1.277,1.277,0,0,0,.206.864,1.459,1.459,0,0,0,1.316.632c.483-.057.535-.1,2.193-1.75,1.772-1.768,1.8-1.807,1.8-2.4s-.031-.632-1.8-2.4a12.949,12.949,0,0,0-1.759-1.636A1.532,1.532,0,0,0,207.321-350.529Z" transform="translate(-183.869 -123.629)" fill="#fff"/>
  </g>
</svg>
