<svg xmlns="http://www.w3.org/2000/svg" width="23.92" height="23.92" viewBox="0 0 23.92 23.92">
  <g id="missing-_1_" transform="translate(-0.08 511.911)">
    <path id="Path_57263" data-name="Path 57263" d="M9.117-511.859a10.162,10.162,0,0,0-3.364.967,9.456,9.456,0,0,0-2.715,1.939A9.457,9.457,0,0,0,1.1-506.238a10.051,10.051,0,0,0,1.892,11.485,10.011,10.011,0,0,0,8.976,2.836,9.584,9.584,0,0,0,2.747-.925l.509-.257,2.271,2.266c1.252,1.243,2.378,2.332,2.5,2.411a2.806,2.806,0,0,0,1.453.43,3.292,3.292,0,0,0,1.206-.313,3.477,3.477,0,0,0,1.028-1.028A3.292,3.292,0,0,0,24-490.538a2.775,2.775,0,0,0-.519-1.579c-.084-.107-1.149-1.2-2.369-2.425l-2.219-2.224.257-.509a9.585,9.585,0,0,0,.925-2.747,10.057,10.057,0,0,0-4.346-10.21A10.113,10.113,0,0,0,9.117-511.859Zm1.822,1.392a8.773,8.773,0,0,1,4.486,1.743,11.138,11.138,0,0,1,1.64,1.645,8.662,8.662,0,0,1,1.677,4,10.36,10.36,0,0,1,0,2.523,8.7,8.7,0,0,1-6.378,7.116,7.834,7.834,0,0,1-2.2.276,8.5,8.5,0,0,1-5.257-1.757,11.136,11.136,0,0,1-1.645-1.64,8.684,8.684,0,0,1-.042-10.467,10.269,10.269,0,0,1,1.663-1.677A8.629,8.629,0,0,1,10.94-510.467Zm9.331,17.088c2.037,2.047,2.182,2.2,2.257,2.439a1.184,1.184,0,0,1-.612,1.435,1.324,1.324,0,0,1-1-.014,29.007,29.007,0,0,1-2.355-2.252l-2.145-2.145.159-.131a17.115,17.115,0,0,0,1.3-1.3,1.383,1.383,0,0,1,.187-.215C18.079-495.561,19.07-494.58,20.271-493.379Z" transform="translate(0)" fill="#fff"/>
    <path id="Path_57264" data-name="Path 57264" d="M70.937-447.77a7.077,7.077,0,0,0-4.7,2.4,7.052,7.052,0,0,0-.589,8.518,7.032,7.032,0,0,0,5.906,3.191,6.808,6.808,0,0,0,4.99-2.079,6.808,6.808,0,0,0,2.079-4.99,7.061,7.061,0,0,0-4.836-6.705,6.677,6.677,0,0,0-1.663-.336A4.392,4.392,0,0,0,70.937-447.77Zm1.121,1.4a5.671,5.671,0,0,1,5.1,4.738,6.417,6.417,0,0,1-.089,2.276,5.7,5.7,0,0,1-4.131,4.135,6.367,6.367,0,0,1-2.285.093,5.7,5.7,0,0,1-3.2-1.691,5.666,5.666,0,0,1-.944-6.486,5.769,5.769,0,0,1,2.467-2.467,6.151,6.151,0,0,1,2.472-.635C71.5-446.415,71.778-446.4,72.058-446.373Z" transform="translate(-61.399 -61.103)" fill="#fff"/>
    <path id="Path_57265" data-name="Path 57265" d="M178.8-390.861a.6.6,0,0,0-.3.6.6.6,0,0,0,.664.677.648.648,0,0,0,.6-.336.72.72,0,0,0-.229-.925A.877.877,0,0,0,178.8-390.861Z" transform="translate(-170.084 -115.326)" fill="#fff"/>
    <path id="Path_57266" data-name="Path 57266" d="M224.537-390.893a.677.677,0,0,0,0,1.14.7.7,0,0,0,1-.266.674.674,0,0,0-.617-.981A.633.633,0,0,0,224.537-390.893Z" transform="translate(-213.672 -115.262)" fill="#fff"/>
    <path id="Path_57267" data-name="Path 57267" d="M134.449-367.925a.674.674,0,0,0-.215.92.642.642,0,0,0,.593.346.68.68,0,0,0,.687-.631A.7.7,0,0,0,134.449-367.925Z" transform="translate(-127.789 -137.154)" fill="#fff"/>
    <path id="Path_57268" data-name="Path 57268" d="M268.4-367.849a.687.687,0,0,0-.238.935.589.589,0,0,0,.43.327.693.693,0,0,0,.85-.556.75.75,0,0,0-.35-.715A.738.738,0,0,0,268.4-367.849Z" transform="translate(-255.465 -137.245)" fill="#fff"/>
    <path id="Path_57269" data-name="Path 57269" d="M136.791-323.632a3.928,3.928,0,0,0-2.99,2.827,2.13,2.13,0,0,0,.953,2.668,1.522,1.522,0,0,0,.78.192,2.788,2.788,0,0,0,1.084-.145,2.531,2.531,0,0,1,1.71-.019,3.164,3.164,0,0,0,1.075.15,1.333,1.333,0,0,0,.855-.15,1.858,1.858,0,0,0,1.1-1.64,3.847,3.847,0,0,0-2.724-3.789,3.129,3.129,0,0,0-.981-.122A5.783,5.783,0,0,0,136.791-323.632Zm1.453,1.449a2.484,2.484,0,0,1,1.72,2.266.438.438,0,0,1-.159.425c-.21.21-.374.21-1.215,0a3.385,3.385,0,0,0-2.019-.023c-.715.182-1,.215-1.182.14-.266-.107-.341-.322-.28-.8a2.538,2.538,0,0,1,1.766-2.028A3.151,3.151,0,0,1,138.244-322.183Z" transform="translate(-127.365 -179.452)" fill="#fff"/>
  </g>
</svg>
