<?xml version="1.0" encoding="utf-8"?>
<!-- Generator: Adobe Illustrator 25.0.0, SVG Export Plug-In . SVG Version: 6.00 Build 0)  -->
<svg version="1.1" id="Layer_1" xmlns="http://www.w3.org/2000/svg" xmlns:xlink="http://www.w3.org/1999/xlink" x="0px" y="0px"
	 viewBox="0 0 32.8 36" style="enable-background:new 0 0 32.8 36;" xml:space="preserve">
<style type="text/css">
	.st0{fill:none;}
	.st1{opacity:0.4;fill:url(#Path_14_1_);enable-background:new    ;}
	.st2{fill:#FFFFFF;stroke:#182A53;stroke-width:2;stroke-miterlimit:10;}
	.st3{fill:#212683;}
	.st4{fill:none;stroke:#182A53;stroke-width:2;stroke-miterlimit:10;}
	.st5{fill:#FFFFFF;}
</style>
<rect x="-11.9" y="-9" class="st0" width="57" height="54"/>
<g id="Group_56845" transform="translate(-2289.005 147.58)">
	<g id="Group_12" transform="translate(2301.223 -139.281)">
		
			<linearGradient id="Path_14_1_" gradientUnits="userSpaceOnUse" x1="-46.4339" y1="16.5071" x2="-45.4546" y2="16.5071" gradientTransform="matrix(32.1935 0 0 -35.9714 1483.4976 603.4702)">
			<stop  offset="0" style="stop-color:#EFA6C2"/>
			<stop  offset="1" style="stop-color:#96CDBD"/>
		</linearGradient>
		<path id="Path_14" class="st1" d="M11.4,6.7c-1,0-2,0.2-2.9,0.5C11,2.1,9-4.2,3.8-6.8C-1.4-9.4-7.7-7.3-10.3-2.1
			C-12.6,2.5-11.2,8.1-7,11.1c-4.1,2.5-5.4,7.9-2.9,12s7.9,5.4,12,2.9c1.6-0.9,2.8-2.3,3.5-4c3.6,3.2,9.1,2.9,12.3-0.7
			c3.2-3.6,2.9-9.1-0.7-12.3C15.6,7.5,13.5,6.7,11.4,6.7L11.4,6.7z"/>
		<path id="Path_15" class="st2" d="M2.5,20.4c-1.7,0.3-3.3,1.2-4.6,2.4c-0.6,0.6-1.6,0.5-2.1-0.1c-0.1-0.1-0.2-0.3-0.3-0.5
			C-6.4,17.2-3.9,11.8,1.1,10s10.4,0.7,12.2,5.7c0.8,2.1,0.8,4.4,0,6.5c-0.3,0.8-1.2,1.2-1.9,0.9c-0.2-0.1-0.4-0.2-0.5-0.3
			c-1.3-1.2-2.9-2-4.6-2.4"/>
		<g id="Group_8" transform="translate(1.504 7.667)">
			<g id="Group_6" transform="translate(0)">
				<path id="Path_16" class="st2" d="M-6.7,1.1C-6.1,2.4-6.8,4-8.1,4.5c-1.4,0.6-2.9-0.1-3.5-1.4c-0.6-1.4,0.1-2.9,1.4-3.5
					c0,0,0,0,0,0C-8.8-0.9-7.2-0.3-6.7,1.1z"/>
				<path id="Path_17" class="st2" d="M-0.3-6.4C0.2-5.1-0.4-3.5-1.8-3c-1.4,0.6-2.9-0.1-3.5-1.4c-0.6-1.4,0.1-2.9,1.4-3.5
					c0,0,0,0,0,0C-2.4-8.4-0.9-7.8-0.3-6.4z"/>
			</g>
			<g id="Group_7" transform="translate(17.986)">
				<path id="Path_18" class="st2" d="M-5.6,1.1C-6.2,2.4-5.5,4-4.2,4.5s2.9-0.1,3.5-1.4c0.6-1.4-0.1-2.9-1.4-3.5c0,0,0,0,0,0
					C-3.5-0.9-5.1-0.3-5.6,1.1z"/>
				<path id="Path_19" class="st2" d="M-11.9-6.4c-0.6,1.4,0.1,2.9,1.4,3.5C-9.2-2.4-7.6-3.1-7-4.4c0.6-1.4-0.1-2.9-1.4-3.5
					c0,0,0,0,0,0C-9.8-8.4-11.4-7.8-11.9-6.4z"/>
			</g>
		</g>
		<path id="Path_20" class="st3" d="M4.8,20.2c0,0.3-0.2,0.5-0.5,0.5s-0.5-0.2-0.5-0.5c0-0.3,0.2-0.5,0.5-0.5S4.8,19.9,4.8,20.2z"/>
		<path id="Path_21" class="st4" d="M2.1,13.2L2.1,13.2c-1.8,0-3.2,1.4-3.2,3.2v0"/>
		<g id="Group_9" transform="translate(0 6.562)">
			<path id="Path_22" class="st5" d="M-9.3-7.1h-0.4v-0.4c0-0.3-0.2-0.5-0.5-0.5c-0.3,0-0.5,0.2-0.5,0.5v0.4h-0.4
				c-0.3,0-0.5,0.2-0.5,0.5s0.2,0.5,0.5,0.5h0.4v0.4c0,0.3,0.2,0.5,0.5,0.5c0.3,0,0.5-0.2,0.5-0.5v-0.4h0.4c0.3,0,0.5-0.2,0.5-0.5
				S-9-7.1-9.3-7.1L-9.3-7.1z"/>
		</g>
		<g id="Group_10" transform="translate(28.358 3.554)">
			<path id="Path_23" class="st5" d="M-9.9-7h-0.4v-0.4c0-0.3-0.2-0.5-0.5-0.5c-0.3,0-0.5,0.2-0.5,0.5V-7h-0.4
				c-0.3,0-0.5,0.2-0.5,0.5S-12.1-6-11.8-6h0.4v0.4c0,0.3,0.2,0.5,0.5,0.5c0.3,0,0.5-0.2,0.5-0.5V-6h0.4c0.3,0,0.5-0.2,0.5-0.5
				S-9.6-7-9.9-7z"/>
		</g>
		<g id="Group_11" transform="translate(1.504 31.13)">
			<path id="Path_24" class="st5" d="M-9.3-7.6h-0.4V-8c0-0.3-0.2-0.5-0.5-0.5c-0.3,0-0.5,0.2-0.5,0.5v0.4h-0.4
				c-0.3,0-0.5,0.2-0.5,0.5s0.2,0.5,0.5,0.5h0.4v0.4c0,0.3,0.2,0.5,0.5,0.5c0.3,0,0.5-0.2,0.5-0.5v-0.4h0.4c0.3,0,0.5-0.2,0.5-0.5
				S-9.1-7.6-9.3-7.6z"/>
		</g>
	</g>
</g>
</svg>
