<svg xmlns="http://www.w3.org/2000/svg" width="10.667" height="13.333" viewBox="0 0 10.667 13.333">
  <path id="Combined_Shape" data-name="Combined Shape" d="M4.91,13.16l-.089-.09-.26-.269-.312-.332-.233-.254c-.6-.664-1.153-1.325-1.642-1.966C.776,8.156,0,6.511,0,5.218A5.115,5.115,0,0,1,1.584,1.461,5.415,5.415,0,0,1,5.333,0,5.412,5.412,0,0,1,9.082,1.461a5.114,5.114,0,0,1,1.585,3.757,6.26,6.26,0,0,1-1,2.993,19.076,19.076,0,0,1-1.49,2.19c-.5.649-1.061,1.309-1.66,1.961l-.023.025-.123.133-.274.291-.127.133-.212.216a.6.6,0,0,1-.845,0ZM2.413,2.291A3.982,3.982,0,0,0,1.185,5.218c0,1.005.739,2.505,2.138,4.337.475.621,1.006,1.257,1.58,1.89l.1.106.018.02.316.34.3-.322c.578-.63,1.116-1.265,1.6-1.888a18.116,18.116,0,0,0,1.4-2.055,5.291,5.291,0,0,0,.85-2.428A3.981,3.981,0,0,0,8.254,2.291,4.214,4.214,0,0,0,5.333,1.159,4.213,4.213,0,0,0,2.413,2.291Zm.55,2.926a2.371,2.371,0,0,1,4.741,0,2.371,2.371,0,0,1-4.741,0Zm1.185,0a1.186,1.186,0,1,0,1.186-1.16A1.174,1.174,0,0,0,4.148,5.218Z" fill="#ffaf3e"/>
</svg>
