<svg xmlns="http://www.w3.org/2000/svg" width="12.191" height="12.191" viewBox="0 0 12.191 12.191">
  <g id="adult-content" transform="translate(-0.667 -0.667)">
    <path id="Combined_Shape" data-name="Combined Shape" d="M9.424,11.722l0-.062V10.6H8.312a.529.529,0,0,1-.065-1.057l.065,0H9.42V8.48a.556.556,0,0,1,1.1-.061l0,.061V9.541h1.109A.529.529,0,0,1,11.7,10.6l-.065,0H10.528v1.06a.556.556,0,0,1-1.1.062ZM.554,11.661A.545.545,0,0,1,0,11.193l0-.062v-2.1A2.124,2.124,0,0,1,1.5,7.021a13.959,13.959,0,0,1,1.982-.486,3.916,3.916,0,0,1-.272-.283A3.951,3.951,0,0,1,2.217,3.71V3.18A3.245,3.245,0,0,1,5.409,0l.132,0A3.258,3.258,0,0,1,8.866,3.18v.53a3.753,3.753,0,0,1-3.2,3.707l-.093,0h-.03a12.084,12.084,0,0,0-3.688.6,1.063,1.063,0,0,0-.742.918l0,.084V10.6H6.1a.546.546,0,0,1,.55.468l0,.062a.54.54,0,0,1-.49.527l-.065,0Zm4.891-10.6A2.159,2.159,0,0,0,3.325,3.18v.53a2.665,2.665,0,0,0,2.2,2.65l.093,0a2.137,2.137,0,0,0,1.475-.874A2.908,2.908,0,0,0,7.758,3.71V3.18A2.172,2.172,0,0,0,5.542,1.06Z" transform="translate(0.667 0.667)" fill="#fa7f1a"/>
  </g>
</svg>
