<svg xmlns="http://www.w3.org/2000/svg" width="15.553" height="11.907" viewBox="0 0 15.553 11.907">
  <g id="woman-man" transform="translate(-0.667 -0.334)">
    <path id="Combined_Shape" data-name="Combined Shape" d="M12.312,11.907a.623.623,0,0,1-.648-.6.616.616,0,0,1,.573-.592l.075,0h1.944V8.738l-2.425-.893a1.2,1.2,0,0,1-.81-1.007l-.005-.1V6.218a.588.588,0,0,1,.326-.516,1.765,1.765,0,0,0,.966-1.416l0-.118V2.977A1.762,1.762,0,0,0,11.34,1.43a2.094,2.094,0,0,0-1.944,0,.68.68,0,0,1-.885-.218A.57.57,0,0,1,8.749.4a3.493,3.493,0,0,1,3.24,0,2.956,2.956,0,0,1,1.617,2.44l0,.138V4.169a2.888,2.888,0,0,1-1.251,2.337l-.046.031v.2l2.425.893a1.205,1.205,0,0,1,.81,1.009l.005.1v2.573a.616.616,0,0,1-.573.592l-.076,0Zm-11.664,0A.624.624,0,0,1,0,11.311V9.331a1.192,1.192,0,0,1,.815-1.1L3.24,7.336v-.2L3.194,7.1A2.9,2.9,0,0,1,1.948,4.9l0-.138V3.572A3.121,3.121,0,0,1,5.184.6a3.121,3.121,0,0,1,3.24,2.977V4.764A2.909,2.909,0,0,1,7.175,7.1l-.047.031v.2l2.425.893a1.192,1.192,0,0,1,.815,1.105v1.979a.624.624,0,0,1-.648.595ZM3.24,3.572V4.761A1.759,1.759,0,0,0,4.211,6.3a.591.591,0,0,1,.325.517v.522a1.189,1.189,0,0,1-.815,1.105L1.3,9.334v1.382H9.072V9.333L6.647,8.44a1.193,1.193,0,0,1-.815-1.1V6.814A.591.591,0,0,1,6.158,6.3a1.759,1.759,0,0,0,.971-1.534V3.572A1.873,1.873,0,0,0,5.184,1.786,1.873,1.873,0,0,0,3.24,3.572Z" transform="translate(0.667 0.334)" fill="#c64ac1"/>
  </g>
</svg>
