<svg xmlns="http://www.w3.org/2000/svg" width="308.816" height="226" viewBox="0 0 308.816 226">
  <g id="Group_5306" data-name="Group 5306" transform="translate(-33 -158)">
    <text id="No_post_found" data-name="No post found" transform="translate(187.5 379)" fill="#8b94a9" font-size="18" font-family="Roboto-Medium, Roboto" font-weight="500"><tspan x="-79.242" y="0">Woof! Nothing Here</tspan></text>
    <g id="OBJECTS" transform="translate(32.998 160.063)">
      <path id="Path_43650" data-name="Path 43650" d="M185.615,338.854a28.07,28.07,0,0,0-20.865-5.123,56.6,56.6,0,0,0-12.124,3.885c-5.545,2.246-10.783,4.368-16.5,4.035-7.5-.444-14.832-5.207-21.793-14.166-1.438-1.847-2.832-3.791-4.182-5.674-3.84-5.327-7.809-10.877-13.2-14.9a34.422,34.422,0,0,0-28.8-5.5,33.74,33.74,0,0,0-15.831,9.576c-7.263,4.883-10.348,14.441-10.57,23.3a53.81,53.81,0,0,0,8.435,30.019h128.85a23.285,23.285,0,0,0-28.625-17.2c-5.833,1.536-10.934,5.292-16.839,6.521-10.686,2.22-21.345-4.324-28.763-12.333s-12.972-17.718-21.167-24.927c-7.9-6.948-19.649-11.179-29.016-6.7a32.874,32.874,0,0,1,13.718-7.6,33.692,33.692,0,0,1,28.19,5.389c5.305,3.956,9.243,9.443,13.052,14.748,1.354,1.887,2.752,3.84,4.2,5.7,7.1,9.123,14.6,13.98,22.308,14.432,5.882.346,11.44-1.9,16.812-4.084a56.058,56.058,0,0,1,11.986-3.845,27.382,27.382,0,0,1,20.35,4.99,26.077,26.077,0,0,1,10.188,17.9.342.342,0,0,0,.346.306h.036a.342.342,0,0,0,.311-.373A26.712,26.712,0,0,0,185.615,338.854Z" transform="translate(-32.382 -199.764)" fill="#b4d1c6" opacity="0.5"/>
      <path id="Path_43651" data-name="Path 43651" d="M373.907,357.715c-.75-12.963.093-26.233,4.688-38.374s13.283-23.085,25.1-28.461,26.845-4.284,36.594,4.288c7.614,6.695,11.312,16.87,18.481,24.057a34.186,34.186,0,0,0,33.389,8.355c6.815-2.069,13.567-6.371,20.506-4.75,6.508,1.518,10.854,8.075,11.884,14.677s-.577,13.318-2.175,19.8Z" transform="translate(-216.954 -192.69)" fill="#b4d1c6" opacity="0.37"/>
      <line id="Line_8" data-name="Line 8" x2="294.258" transform="translate(14.03 164.563)" fill="none" stroke="#211d1d" stroke-linecap="round" stroke-linejoin="round" stroke-width="1.06"/>
      <path id="Path_43652" data-name="Path 43652" d="M208.219,112.217h0A3.028,3.028,0,0,1,205.2,109.2V98.988A3.028,3.028,0,0,1,208.219,96h0a3.028,3.028,0,0,1,3.014,3.019v10.211A3.028,3.028,0,0,1,208.219,112.217Z" transform="translate(-123.278 -86.15)" fill="#86ad44"/>
      <path id="Path_43653" data-name="Path 43653" d="M213.769,100.479V99a3.028,3.028,0,0,0-2.992-3h0a2.969,2.969,0,0,0-.977.169A6.566,6.566,0,0,0,213.769,100.479Z" transform="translate(-125.836 -86.15)" fill="#66842c"/>
      <path id="Path_43654" data-name="Path 43654" d="M202.17,129.233h0a2.308,2.308,0,0,1-2.3-2.3V116.554a2.308,2.308,0,0,1,2.3-2.3h0a2.309,2.309,0,0,1,2.3,2.3V126.92A2.308,2.308,0,0,1,202.17,129.233Z" transform="translate(-120.314 -96.299)" fill="#86ad44"/>
      <path id="Path_43655" data-name="Path 43655" d="M200.728,133.123c-.28.115-.568.222-.861.32v1.98a2.3,2.3,0,1,0,4.6,0V129.54C203.405,130.938,202.46,132.408,200.728,133.123Z" transform="translate(-120.311 -104.801)" fill="#66842c"/>
      <path id="Path_43656" data-name="Path 43656" d="M208.814,160.24h0a1.6,1.6,0,0,1-1.594-1.594v-9.922a1.594,1.594,0,0,1,1.594-1.594h0a1.6,1.6,0,0,1,1.594,1.594v9.922A1.6,1.6,0,0,1,208.814,160.24Z" transform="translate(-124.401 -114.582)" fill="#86ad44"/>
      <path id="Path_43657" data-name="Path 43657" d="M214.864,159.37h0a1.594,1.594,0,0,1-1.594-1.594v-9.922a1.6,1.6,0,0,1,1.594-1.594h0a1.6,1.6,0,0,1,1.594,1.594v9.922A1.594,1.594,0,0,1,214.864,159.37Z" transform="translate(-127.765 -114.098)" fill="#86ad44"/>
      <rect id="Rectangle_1638" data-name="Rectangle 1638" width="2.686" height="13.11" rx="1.343" transform="translate(84.413 34.435)" fill="#a1ce4a"/>
      <path id="Path_43658" data-name="Path 43658" d="M208.244,146.93h0a1.6,1.6,0,0,1-1.594-1.594v-9.918a1.6,1.6,0,0,1,1.594-1.6h0a1.6,1.6,0,0,1,1.594,1.6v9.918A1.594,1.594,0,0,1,208.244,146.93Z" transform="translate(-124.084 -107.181)" fill="#a1ce4a"/>
      <path id="Path_43659" data-name="Path 43659" d="M215.428,146.93h0a1.6,1.6,0,0,1-1.6-1.594v-9.918a1.6,1.6,0,0,1,1.6-1.6h0a1.6,1.6,0,0,1,1.594,1.6v9.918A1.6,1.6,0,0,1,215.428,146.93Z" transform="translate(-128.077 -107.181)" fill="#a1ce4a"/>
      <path id="Path_43660" data-name="Path 43660" d="M211.834,151.19h0a1.6,1.6,0,0,1-1.594-1.594v-9.922a1.6,1.6,0,0,1,1.594-1.594h0a1.6,1.6,0,0,1,1.6,1.594v9.913a1.6,1.6,0,0,1-1.6,1.6Z" transform="translate(-126.08 -109.549)" fill="#a1ce4a"/>
      <ellipse id="Ellipse_85" data-name="Ellipse 85" cx="4.87" cy="6.229" rx="4.87" ry="6.229" transform="translate(80.089 17.37)" fill="#ff6f36"/>
      <path id="Path_43661" data-name="Path 43661" d="M207.205,119.967a5.856,5.856,0,0,0-5.691.133,7.622,7.622,0,0,0-.444,2.6c0,3.441,2.184,6.215,4.883,6.215,2.486,0,4.537-2.384,4.835-5.465A9.172,9.172,0,0,0,207.205,119.967Z" transform="translate(-120.981 -99.103)" fill="#ece9af"/>
      <path id="Path_43662" data-name="Path 43662" d="M216,129.473h0a2.313,2.313,0,0,1-2.3-2.3V116.514a2.313,2.313,0,0,1,2.3-2.3h0a2.313,2.313,0,0,1,2.3,2.3v10.655A2.313,2.313,0,0,1,216,129.473Z" transform="translate(-128.004 -96.276)" fill="#86ad44"/>
      <path id="Path_43663" data-name="Path 43663" d="M213.7,128v6.837a2.3,2.3,0,0,0,4.608,0V133.2A10.526,10.526,0,0,1,213.7,128Z" transform="translate(-128.004 -103.944)" fill="#66842c"/>
      <path id="Path_43664" data-name="Path 43664" d="M211.631,99.735a1.225,1.225,0,1,1-1.225-1.225A1.225,1.225,0,0,1,211.631,99.735Z" transform="translate(-125.491 -87.546)" fill="#ece9af"/>
      <path id="Path_43665" data-name="Path 43665" d="M206.033,102.165a1.128,1.128,0,1,1-1.114-1.305A1.225,1.225,0,0,1,206.033,102.165Z" transform="translate(-122.495 -88.853)" fill="#ecc358"/>
      <path id="Path_43666" data-name="Path 43666" d="M204.264,101.708h0a2.126,2.126,0,0,0,1.168.666,1.811,1.811,0,0,0,.12-.648,1.474,1.474,0,0,0-1.332-1.576c-.732,0-1.434.568-1.332,1.913l1.367-.373A.04.04,0,0,1,204.264,101.708Z" transform="translate(-121.987 -88.458)" fill="#ece9af"/>
      <path id="Path_43667" data-name="Path 43667" d="M216.135,121.36a1.8,1.8,0,0,0,.107,1.429,1.776,1.776,0,0,0,1.123.888,1.381,1.381,0,0,0,1.416,1.208" transform="translate(-129.303 -100.252)" fill="none" stroke="#472a1c" stroke-linecap="round" stroke-linejoin="round" stroke-width="0.43"/>
      <path id="Path_43668" data-name="Path 43668" d="M211.737,100.2a1.123,1.123,0,0,0-.857.848" transform="translate(-126.436 -88.486)" fill="none" stroke="#472a1c" stroke-linecap="round" stroke-linejoin="round" stroke-width="0.43"/>
      <path id="Path_43669" data-name="Path 43669" d="M52.619,109.217h0A3.028,3.028,0,0,1,49.6,106.2V95.988A3.028,3.028,0,0,1,52.619,93h0a3.028,3.028,0,0,1,3.019,3.019v10.211A3.028,3.028,0,0,1,52.619,109.217Z" transform="translate(-36.755 -84.482)" fill="#86ad44"/>
      <path id="Path_43670" data-name="Path 43670" d="M58.2,97.479V96a3.028,3.028,0,0,0-3.019-3h0a3.059,3.059,0,0,0-.972.164A6.566,6.566,0,0,0,58.2,97.479Z" transform="translate(-39.319 -84.482)" fill="#ff6f36"/>
      <path id="Path_43671" data-name="Path 43671" d="M46.624,126.233h0a2.313,2.313,0,0,1-2.3-2.3V113.554a2.313,2.313,0,0,1,2.3-2.3h0a2.313,2.313,0,0,1,2.3,2.3V123.92a2.313,2.313,0,0,1-2.3,2.313Z" transform="translate(-33.819 -94.63)" fill="#86ad44"/>
      <path id="Path_43672" data-name="Path 43672" d="M45.158,130.123q-.444.173-.888.32v1.98a2.3,2.3,0,1,0,4.608,0V126.54C47.835,127.938,46.889,129.408,45.158,130.123Z" transform="translate(-33.792 -103.132)" fill="#66842c"/>
      <path id="Path_43673" data-name="Path 43673" d="M53.264,157.24h0a1.6,1.6,0,0,1-1.594-1.6v-9.918a1.6,1.6,0,0,1,1.594-1.594h0a1.6,1.6,0,0,1,1.6,1.594v9.918a1.6,1.6,0,0,1-1.6,1.6Z" transform="translate(-37.906 -112.914)" fill="#86ad44"/>
      <path id="Path_43674" data-name="Path 43674" d="M59.324,156.37h0a1.594,1.594,0,0,1-1.594-1.594v-9.922a1.6,1.6,0,0,1,1.594-1.594h0a1.6,1.6,0,0,1,1.594,1.594v9.922A1.6,1.6,0,0,1,59.324,156.37Z" transform="translate(-41.276 -112.43)" fill="#86ad44"/>
      <rect id="Rectangle_1639" data-name="Rectangle 1639" width="2.686" height="13.11" rx="1.343" transform="translate(15.357 33.103)" fill="#a1ce4a"/>
      <path id="Path_43675" data-name="Path 43675" d="M52.7,143.93h0a1.594,1.594,0,0,1-1.594-1.594v-9.922A1.6,1.6,0,0,1,52.7,130.82h0a1.6,1.6,0,0,1,1.594,1.594v9.922A1.6,1.6,0,0,1,52.7,143.93Z" transform="translate(-37.595 -105.512)" fill="#a1ce4a"/>
      <path id="Path_43676" data-name="Path 43676" d="M59.884,143.93h0a1.6,1.6,0,0,1-1.594-1.594v-9.922a1.6,1.6,0,0,1,1.594-1.594h0a1.6,1.6,0,0,1,1.594,1.594v9.922A1.594,1.594,0,0,1,59.884,143.93Z" transform="translate(-41.587 -105.512)" fill="#a1ce4a"/>
      <path id="Path_43677" data-name="Path 43677" d="M56.294,148.19h0a1.6,1.6,0,0,1-1.594-1.6v-9.913a1.6,1.6,0,0,1,1.594-1.594h0a1.6,1.6,0,0,1,1.594,1.594v9.913A1.6,1.6,0,0,1,56.294,148.19Z" transform="translate(-39.591 -107.881)" fill="#a1ce4a"/>
      <ellipse id="Ellipse_86" data-name="Ellipse 86" cx="4.87" cy="6.229" rx="4.87" ry="6.229" transform="translate(11.033 16.038)" fill="#a1ce4a"/>
      <path id="Path_43678" data-name="Path 43678" d="M51.66,116.962a5.878,5.878,0,0,0-5.7.138,7.729,7.729,0,0,0-.444,2.6c0,3.441,2.18,6.215,4.883,6.215,2.491,0,4.542-2.388,4.835-5.465A9.2,9.2,0,0,0,51.66,116.962Z" transform="translate(-34.487 -97.434)" fill="#bde55c"/>
      <path id="Path_43679" data-name="Path 43679" d="M60.464,126.473h0a2.309,2.309,0,0,1-2.3-2.3V113.514a2.309,2.309,0,0,1,2.3-2.3h0a2.309,2.309,0,0,1,2.3,2.3v10.655A2.309,2.309,0,0,1,60.464,126.473Z" transform="translate(-41.515 -94.608)" fill="#86ad44"/>
      <path id="Path_43680" data-name="Path 43680" d="M58.157,125v6.837a2.3,2.3,0,1,0,4.6,0V130.2A10.521,10.521,0,0,1,58.157,125Z" transform="translate(-41.512 -102.276)" fill="#66842c"/>
      <path id="Path_43681" data-name="Path 43681" d="M56.081,96.735a1.221,1.221,0,1,1-.358-.868A1.225,1.225,0,0,1,56.081,96.735Z" transform="translate(-38.996 -85.878)" fill="#ece9af"/>
      <path id="Path_43682" data-name="Path 43682" d="M56.057,97.618a.408.408,0,1,1-.408-.408A.408.408,0,0,1,56.057,97.618Z" transform="translate(-39.891 -86.823)" fill="#2d1a14"/>
      <path id="Path_43683" data-name="Path 43683" d="M50.483,99.165a1.128,1.128,0,1,1-1.114-1.305,1.221,1.221,0,0,1,1.114,1.305Z" transform="translate(-36 -87.185)" fill="#ecc358"/>
      <path id="Path_43684" data-name="Path 43684" d="M48.7,98.708h0a2.113,2.113,0,0,0,1.168.666,1.807,1.807,0,0,0,.115-.648,1.474,1.474,0,0,0-1.332-1.576c-.733,0-1.434.568-1.332,1.913l1.367-.373A.044.044,0,0,1,48.7,98.708Z" transform="translate(-35.481 -86.79)" fill="#ece9af"/>
      <path id="Path_43685" data-name="Path 43685" d="M172.336,90.926c0,.79-1.208,1.434-1.372,2.171s.626,1.865.3,2.553-1.7.759-2.184,1.358-.235,1.944-.839,2.428-1.856-.058-2.553.28-1.048,1.651-1.811,1.825-1.634-.861-2.424-.861-1.683,1.03-2.419.861-1.123-1.492-1.811-1.825-1.953.2-2.553-.28-.36-1.825-.839-2.428-1.847-.657-2.184-1.358.471-1.776.3-2.553-1.372-1.381-1.372-2.171,1.208-1.434,1.372-2.171-.626-1.865-.3-2.553,1.7-.755,2.184-1.358.235-1.944.839-2.428,1.856.058,2.553-.28,1.048-1.647,1.811-1.82,1.634.857,2.419.857,1.687-1.025,2.424-.857,1.123,1.492,1.811,1.82,1.953-.2,2.553.284.36,1.825.839,2.428,1.847.657,2.184,1.332-.471,1.776-.3,2.553S172.336,90.135,172.336,90.926Z" transform="translate(-92.9 -77.418)" fill="#2d1a14"/>
      <rect id="Rectangle_1640" data-name="Rectangle 1640" width="38.197" height="26.006" rx="13.003" transform="translate(53.393 91.712) rotate(-86.78)" fill="#bcb1aa"/>
      <path id="Path_43686" data-name="Path 43686" d="M171.16,119.12c-.222,1.159,0,4.821-.053,6-.053,1.776-.093,3.467,1.141,4.737a5.918,5.918,0,0,1-3.187,2.22,5.722,5.722,0,0,1-3.809-.368,10.5,10.5,0,0,1-.928-.515l-1.123-.67c1.62-2.792,3.005-5.882,2.57-9.083.812-.151,1.958-.493,2.766-.644a4.777,4.777,0,0,1,1.065-.115C170.165,120.723,170.6,119.213,171.16,119.12Z" transform="translate(-99.923 -99.007)" fill="#ff8772"/>
      <path id="Path_43687" data-name="Path 43687" d="M169,125.89a9.244,9.244,0,0,0,0-2.451c.812-.151,1.958-.493,2.766-.644a4.776,4.776,0,0,1,1.065-.115h.027A9.767,9.767,0,0,1,169,125.89Z" transform="translate(-103.149 -100.986)" fill="#2d1a14"/>
      <path id="Path_43688" data-name="Path 43688" d="M212.72,185.652c.053-.639.107-1.283.151-1.922.062.111.124.222.182.337C212.955,184.538,212.844,185.071,212.72,185.652Z" transform="translate(-127.459 -134.933)" fill="#5a525d"/>
      <path id="Path_43689" data-name="Path 43689" d="M134.653,150.029a9.831,9.831,0,0,1,7.671-6.215v-.031h.235a11.754,11.754,0,0,1,2.473,0h2.02c2.695-.2,5.381-.493,8.084-.573h.808c.741,0,1.5,0,2.246.031h.067l1.012.067c.342.031.684.067,1.021.115a15.7,15.7,0,0,1,3.081.7c.173.058.342.124.511.191l.257.1.737.32h.067c2.246,1.008,4.781,2.464,5.305,4.954,1.239,5.931-.888,12.43-2.033,18.2a173.846,173.846,0,0,0-2.952,23.085v.249H134Z" transform="translate(-83.687 -112.402)" fill="#8383d6"/>
      <path id="Path_43690" data-name="Path 43690" d="M150.16,425.86" transform="translate(-92.673 -269.572)" fill="none" stroke="#472a1c" stroke-linecap="round" stroke-linejoin="round" stroke-width="0.43"/>
      <path id="Path_43691" data-name="Path 43691" d="M166.19,281" transform="translate(-101.586 -189.021)" fill="none" stroke="#472a1c" stroke-linecap="round" stroke-linejoin="round" stroke-width="0.43"/>
      <path id="Path_43692" data-name="Path 43692" d="M164.688,108.708a.958.958,0,0,0,0,.115v.235a.4.4,0,0,0,.022.16,1.088,1.088,0,0,1,.036.164v.093a.572.572,0,0,0,.036.138c.013.049.075.218.12.324a.11.11,0,0,0,.031.075,3.551,3.551,0,0,0,.373.639l.093.124.058.067a1,1,0,0,0,.093.107,3.169,3.169,0,0,0,.244.244l.12.1a3.274,3.274,0,0,0,.546.368,3.207,3.207,0,0,0,.444.2l.1.04h.155l.12.031a3.552,3.552,0,0,0,.755.093h.169a3.36,3.36,0,0,0,1.722-.555,3.525,3.525,0,0,0,1.589-2.921v-5.265a.541.541,0,0,1,0-.084.337.337,0,0,1,0-.067v-.067h0a.124.124,0,0,1,0-.04v-.249l-.027-.138a.111.111,0,0,0-.022-.08.563.563,0,0,0,0-.071.389.389,0,0,0-.022-.067h0a.391.391,0,0,0,0-.067.335.335,0,0,0-.022-.071.391.391,0,0,1,0-.067,1.276,1.276,0,0,0-.058-.138v-.027c0-.04-.036-.075-.049-.111v-.027a.881.881,0,0,0-.058-.111h0a3.423,3.423,0,0,0-6.242.364,3.6,3.6,0,0,0-.244,1.265l-.044,5.092A.23.23,0,0,0,164.688,108.708Z" transform="translate(-100.75 -88.355)" fill="#ff8772"/>
      <path id="Path_43693" data-name="Path 43693" d="M182.6,114.655a1.776,1.776,0,1,1-1.74-1.776A1.776,1.776,0,0,1,182.6,114.655Z" transform="translate(-108.737 -95.536)" fill="#ff8772"/>
      <path id="Path_43694" data-name="Path 43694" d="M164.643,110.154l1.332.044a.324.324,0,0,0,.355-.28h0a.329.329,0,0,0-.333-.306l-1.332-.044a.324.324,0,0,0-.355.28h0a.324.324,0,0,0,.333.306Z" transform="translate(-100.541 -93.694)" fill="#2d1a14"/>
      <path id="Path_43695" data-name="Path 43695" d="M171.017,110.269l1.332.049a.329.329,0,0,0,.355-.284h0a.324.324,0,0,0-.337-.3l-1.332-.044a.32.32,0,0,0-.355.28h0A.324.324,0,0,0,171.017,110.269Z" transform="translate(-104.083 -93.76)" fill="#2d1a14"/>
      <path id="Path_43696" data-name="Path 43696" d="M169,118.09a.35.35,0,0,0,0,.071c0,.32.471.577,1.048.577s1.052-.257,1.052-.577a.345.345,0,0,0,0-.071Z" transform="translate(-103.146 -98.434)" fill="#2d1a14"/>
      <path id="Path_43697" data-name="Path 43697" d="M150.1,41.671l-.968.582V39.54" transform="translate(-82.923 -23.133)" fill="none" stroke="#472a1c" stroke-linecap="round" stroke-linejoin="round" stroke-width="0.29"/>
      <path id="Path_43698" data-name="Path 43698" d="M216.531,206.839l-4.027-.484-1.944-23.662-17.94-24.55a5.3,5.3,0,1,1,8.559-6.255l18.646,25.491a5.328,5.328,0,0,1,.919,2.087Z" transform="translate(-115.715 -116.019)" fill="#ff8b6b"/>
      <line id="Line_9" data-name="Line 9" x1="5.878" y1="7.583" transform="translate(80.568 47.736)" fill="none" stroke="#472a1c" stroke-linecap="round" stroke-linejoin="round" stroke-width="0.43"/>
      <line id="Line_10" data-name="Line 10" y2="14.952" transform="translate(50.691 45.809)" fill="none" stroke="#472a1c" stroke-linecap="round" stroke-linejoin="round" stroke-width="0.43"/>
      <path id="Path_43699" data-name="Path 43699" d="M173.7,112.783a2.784,2.784,0,0,0-1.691.444" transform="translate(-104.822 -95.48)" fill="none" stroke="#472a1c" stroke-linecap="round" stroke-linejoin="round" stroke-width="0.36"/>
      <path id="Path_43700" data-name="Path 43700" d="M165.4,113.183a2.766,2.766,0,0,1,1.691.444" transform="translate(-101.147 -95.702)" fill="none" stroke="#472a1c" stroke-linecap="round" stroke-linejoin="round" stroke-width="0.36"/>
      <path id="Path_43701" data-name="Path 43701" d="M162.456,102.9a6.9,6.9,0,0,0,2.957-2.38,3.738,3.738,0,0,0,2.508,2.539,11.1,11.1,0,0,0,3.68.444V98.75H161.75Z" transform="translate(-99.117 -87.68)" fill="#2d1a14"/>
      <path id="Path_43702" data-name="Path 43702" d="M157.195,423.4a6.832,6.832,0,0,1-1.816,7.232c-1.305,1.11-2.988,1.554-4.488,2.34a12.32,12.32,0,0,0-6.051,7.845l21.016-4-2.8-14.752Z" transform="translate(-89.714 -267.464)" fill="#2d1a14"/>
      <path id="Path_43703" data-name="Path 43703" d="M150.9,438.817c1.5-.786,3.183-1.23,4.488-2.34a6.473,6.473,0,0,0,2.087-3.9c.542.568,1.07,1.15,1.634,1.691a6.41,6.41,0,0,0,1.829,1.31,2.664,2.664,0,0,0,2.087.044,3.919,3.919,0,0,0,1.332-.932l1.514,7.991-21.016,4A12.319,12.319,0,0,1,150.9,438.817Z" transform="translate(-89.72 -273.308)" fill="#2d1a14"/>
      <rect id="Rectangle_1641" data-name="Rectangle 1641" width="22.978" height="2.34" rx="1.17" transform="translate(54.339 172.378) rotate(-10.74)" fill="#2d1a14"/>
      <path id="Path_43704" data-name="Path 43704" d="M199.27,394.946a6.853,6.853,0,0,1,3.773,6.428c-.155,1.709-1.043,3.205-1.563,4.817a12.315,12.315,0,0,0,1.185,9.833l12.2-17.576-12.333-8.559Z" transform="translate(-119.981 -249.57)" fill="#2d1a14"/>
      <path id="Path_43705" data-name="Path 43705" d="M203.583,411.113c.519-1.611,1.407-3.108,1.563-4.817a6.415,6.415,0,0,0-1.243-4.24c.786.027,1.572.071,2.353.058a6.317,6.317,0,0,0,2.22-.346,2.664,2.664,0,0,0,1.518-1.434,4,4,0,0,0,.3-1.594l6.659,4.63-12.2,17.576A12.315,12.315,0,0,1,203.583,411.113Z" transform="translate(-122.083 -254.491)" fill="#2d1a14"/>
      <rect id="Rectangle_1642" data-name="Rectangle 1642" width="22.978" height="2.34" rx="1.17" transform="matrix(0.57, -0.822, 0.822, 0.57, 81.436, 166.32)" fill="#2d1a14"/>
      <path id="Path_43706" data-name="Path 43706" d="M175.658,328.792l5.394-6.814L166.02,295.145l8.5-27.675-12.537-.95-6.815,28.412a5.327,5.327,0,0,0,.737,4.164Z" transform="translate(-95.378 -180.969)" fill="#bcb1aa"/>
      <path id="Path_43707" data-name="Path 43707" d="M133.323,261.268l8.892-3.25-12.475-34.09,2.917-39.533-11.64-1.7-.777,42.818Z" transform="translate(-66.859 -102.733)" fill="#bcb1aa"/>
      <path id="Path_43708" data-name="Path 43708" d="M179.816,261c-.568,1.137-9.656,32.372-9.656,32.372l17.314,28.963" transform="translate(-103.794 -177.9)" fill="none" stroke="#472a1c" stroke-linecap="round" stroke-linejoin="round" stroke-width="0.43"/>
      <path id="Path_43709" data-name="Path 43709" d="M153.458,267.36s2.557,3.108,4.257,3.405l-4.826,31.52,12.777,35.777" transform="translate(-94.191 -181.437)" fill="none" stroke="#472a1c" stroke-linecap="round" stroke-linejoin="round" stroke-width="0.43"/>
      <path id="Path_43710" data-name="Path 43710" d="M236.9,274.905l-4.031-.235s-5.558,4.83-4.755,5.709c.475.524,3.183-1.634,3.183-1.634s-1.425,6.695-.546,6.965a.216.216,0,0,0,.107,0c.151-.173.311-.346.471-.515a10.254,10.254,0,0,0,.653-1.9c.941.693,2.637.555,2.464-.852a1.159,1.159,0,0,0,1.394.147,2.331,2.331,0,0,0,.932-1.154,4.95,4.95,0,0,0,.244-3.179C236.972,276.428,236.9,274.905,236.9,274.905Z" transform="translate(-135.973 -185.501)" fill="#ff8b6b"/>
      <path id="Path_43711" data-name="Path 43711" d="M232.075,291.862h0a.826.826,0,0,0,.99-.6l2-8.217a.821.821,0,0,0-.6-.99h0a.821.821,0,0,0-.99.6l-2,8.213a.826.826,0,0,0,.6.994Z" transform="translate(-137.873 -189.593)" fill="#ff8b6b"/>
      <path id="Path_43712" data-name="Path 43712" d="M226.937,282.732h0a.843.843,0,0,0,1.19.071l3.418-3.032a.844.844,0,0,0,.071-1.185h0a.839.839,0,0,0-1.185-.071l-3.423,3.032A.843.843,0,0,0,226.937,282.732Z" transform="translate(-135.248 -187.522)" fill="#ff8b6b"/>
      <path id="Path_43713" data-name="Path 43713" d="M80.125,143.46l-14.61,6.215,3.676.058-25.274-8.626a2.828,2.828,0,0,0-2.22,5.185l23.671,12.35a4.018,4.018,0,0,0,3.205.226l.471-.164,14.948-5.327a5.327,5.327,0,0,0-3.552-10.033Z" transform="translate(-31.512 -111.147)" fill="#ff8b6b"/>
      <path id="Path_43714" data-name="Path 43714" d="M111.705,143.912a54.379,54.379,0,0,0-24.324,2.553c-1.811.644-3.689,1.4-5.589,1.114a15.762,15.762,0,0,1-4.439-1.913c-1.443-.715-3.223-1.2-4.675-.471a8.408,8.408,0,0,0-1.683.812c.977.124,1.145,1.718,1.252,2.695a7.636,7.636,0,0,1-.089,3.045,2.585,2.585,0,0,1-2.144,1.922c-.959,1.367.5,3.161,1.98,3.929s3.232.888,4.706,1.669c1.776.95,2.934,2.761,4.6,3.9,2.4,1.651,5.585,1.709,8.435,1.074s5.514-1.882,8.319-2.664v35.862a5.339,5.339,0,0,0,4.373,4.04V163.223a12.153,12.153,0,0,1,2.14-7.836,34.947,34.947,0,0,1,2.966-3.307A17.915,17.915,0,0,0,111.705,143.912Z" transform="translate(-47.936 -112.566)" fill="#bebefc"/>
      <path id="Path_43715" data-name="Path 43715" d="M194.216,178.3c.133,1.558-.542,3.148-.173,4.666s1.776,2.695,2.362,4.2c.8,2.118-.169,4.439-1,6.548a11.949,11.949,0,0,0-.915,3.591H209.31a7.294,7.294,0,0,0-.382-2.459c-.622-1.913-1.545-3.889-1.074-5.842.346-1.425,1.385-2.584,1.86-3.969a10.476,10.476,0,0,0,.226-4.32l-.444-5.154a13.417,13.417,0,0,0-.644-3.592,14.662,14.662,0,0,0-3.205-4.439,95.675,95.675,0,0,1-10.5-13.647,41.979,41.979,0,0,0-4.16-5.936c-3.765-4.129-10.069-6.171-14.77-5.025s-6.3,7.911-5.527,12.732c.5,3.023,2.087,5.975,1.54,8.99-.333,1.842-1.429,3.436-2.282,5.1s-1.487,3.627-.839,5.381v22.459c-.075,2.042,1.23,3.387,2.784,4.715a11.152,11.152,0,0,0,5.58,2.357,9.914,9.914,0,0,0,6.379-.888c2.557-1.456,3.964-4.4,4.408-7.307a44.346,44.346,0,0,0-.062-8.817,116.53,116.53,0,0,1,1.065-18.437C189.777,172.558,193.927,174.9,194.216,178.3Z" transform="translate(-103.06 -112.068)" fill="#bebefc"/>
      <line id="Line_11" data-name="Line 11" x1="8.373" y1="11.272" transform="translate(77.847 45.849)" fill="none" stroke="#472a1c" stroke-linecap="round" stroke-linejoin="round" stroke-width="0.43"/>
      <path id="Path_43716" data-name="Path 43716" d="M136.739,162.2a17.851,17.851,0,0,0-3.259,10" transform="translate(-83.397 -122.961)" fill="none" stroke="#472a1c" stroke-linecap="round" stroke-linejoin="round" stroke-width="0.43"/>
      <path id="Path_43717" data-name="Path 43717" d="M0,.018H10.153V7.889a2.766,2.766,0,0,1-2.766,2.766H0V.018Z" transform="translate(78.637 38.453) rotate(180)" fill="#bebefc"/>
      <path id="Path_43718" data-name="Path 43718" d="M165.62,68.445h-5.15V65.24" transform="translate(-89.229 -37.424)" fill="none" stroke="#472a1c" stroke-linecap="round" stroke-linejoin="round" stroke-width="0.43"/>
      <path id="Path_43719" data-name="Path 43719" d="M156.57,140.816q1.025-2.22,1.847-4.506h-4.906c-.182,0-.075,0-.244.1a3.552,3.552,0,0,0-1.6,1.731,10.331,10.331,0,0,0-.675,2.3Z" transform="translate(-93.134 -108.565)" fill="#bebefc"/>
      <path id="Path_43720" data-name="Path 43720" d="M156.82,137.519a1.305,1.305,0,0,1,1.376.857,2.011,2.011,0,0,1-.209,1.687,4.523,4.523,0,0,0-.728,1.332,3.561,3.561,0,0,0,.479,1.86,4.364,4.364,0,0,1-.4,3.8" transform="translate(-96.376 -109.233)" fill="none" stroke="#472a1c" stroke-linecap="round" stroke-linejoin="round" stroke-width="0.43"/>
      <path id="Path_43721" data-name="Path 43721" d="M218.83,402.22q-1.216,2.047-2.442,4.093A20.1,20.1,0,0,0,214.519,410a10.14,10.14,0,0,0-.36,5.261" transform="translate(-128.153 -256.427)" fill="none" stroke="#ead4c5" stroke-linecap="round" stroke-miterlimit="10" stroke-width="0.73"/>
      <path id="Path_43722" data-name="Path 43722" d="M175.033,443l-5.651,1.953a16.007,16.007,0,0,0-3.778,1.674,5.376,5.376,0,0,0-2.384,3.259" transform="translate(-99.935 -279.103)" fill="none" stroke="#ead4c5" stroke-linecap="round" stroke-miterlimit="10" stroke-width="0.73"/>
      <path id="Path_43723" data-name="Path 43723" d="M180.168,156.456h0a.972.972,0,0,0,.968-.968h0a.972.972,0,0,0-.968-.968h0a.972.972,0,0,0-.968.968h0A.972.972,0,0,0,180.168,156.456Z" transform="translate(-108.82 -118.691)" fill="#ead4c5"/>
      <path id="Path_43724" data-name="Path 43724" d="M182.348,188.576h0a.972.972,0,0,0,.968-.968h0a.972.972,0,0,0-.968-.968h0a.972.972,0,0,0-.968.968h0a.972.972,0,0,0,.968.968Z" transform="translate(-110.033 -136.552)" fill="#ead4c5"/>
      <path id="Path_43725" data-name="Path 43725" d="M174.723,216.366h0a.972.972,0,0,0,.968-.968h0a.972.972,0,0,0-.968-.968h0a.968.968,0,0,0-.963.968h0A.968.968,0,0,0,174.723,216.366Z" transform="translate(-105.795 -152.004)" fill="#ead4c5"/>
      <path id="Path_43726" data-name="Path 43726" d="M175.268,247.406h0a.972.972,0,0,0,.968-.968h0a.972.972,0,0,0-.968-.968h0a.972.972,0,0,0-.968.968h0A.972.972,0,0,0,175.268,247.406Z" transform="translate(-106.096 -169.264)" fill="#ead4c5"/>
      <rect id="Rectangle_1643" data-name="Rectangle 1643" width="4.959" height="10.779" rx="2.479" transform="translate(20.103 31.993)" fill="#a4a4ea"/>
      <path id="Path_43727" data-name="Path 43727" d="M225.39,261.228h0a3.108,3.108,0,0,1,3.108-3.108h10.038a3.108,3.108,0,0,1,3.108,3.108h0a3.108,3.108,0,0,1-3.108,3.108H228.5a3.108,3.108,0,0,1-3.112-3.108Z" transform="translate(-134.505 -176.299)" fill="#a4a4ea"/>
      <path id="Path_43728" data-name="Path 43728" d="M37.665,142.541l-1.039-3.9s-6.326-3.765-6.925-2.726c-.346.617,2.553,2.508,2.553,2.508s-6.806.746-6.783,1.665a.213.213,0,0,0,.031.1c.213.089.444.186.635.284a9.934,9.934,0,0,0,2.015.022c-.364,1.114.3,2.664,1.58,2.078a1.159,1.159,0,0,0,.3,1.367,2.322,2.322,0,0,0,1.39.524,4.932,4.932,0,0,0,3.108-.764C36.24,143.091,37.665,142.541,37.665,142.541Z" transform="translate(-23.338 -108.244)" fill="#ff8b6b"/>
      <path id="Path_43729" data-name="Path 43729" d="M20.676,143.8h0a.821.821,0,0,0,.888.75L30,143.879a.826.826,0,0,0,.755-.888h0a.826.826,0,0,0-.888-.755l-8.435.679a.817.817,0,0,0-.755.888Z" transform="translate(-20.67 -111.859)" fill="#ff8b6b"/>
      <path id="Path_43730" data-name="Path 43730" d="M33.856,134.9h0a.839.839,0,0,0,.3,1.15l3.956,2.3a.843.843,0,0,0,1.15-.3h0a.844.844,0,0,0-.306-1.15l-3.951-2.3A.844.844,0,0,0,33.856,134.9Z" transform="translate(-27.936 -107.545)" fill="#ff8b6b"/>
      <rect id="Rectangle_1644" data-name="Rectangle 1644" width="2.047" height="1.088" rx="0.544" transform="translate(13.795 29.641) rotate(101.57)" fill="#ecc358"/>
      <rect id="Rectangle_1645" data-name="Rectangle 1645" width="2.047" height="1.088" rx="0.544" transform="matrix(-0.201, 0.98, -0.98, -0.201, 12.729, 29.41)" fill="#ecc358"/>
      <rect id="Rectangle_1646" data-name="Rectangle 1646" width="2.047" height="1.088" rx="0.544" transform="translate(14.842 29.851) rotate(101.57)" fill="#ecc358"/>
      <rect id="Rectangle_1647" data-name="Rectangle 1647" width="2.047" height="1.088" rx="0.544" transform="translate(17.685 30.437) rotate(101.57)" fill="#ecc358"/>
      <rect id="Rectangle_1648" data-name="Rectangle 1648" width="2.047" height="1.088" rx="0.544" transform="matrix(-0.201, 0.98, -0.98, -0.201, 16.613, 30.206)" fill="#ecc358"/>
      <rect id="Rectangle_1649" data-name="Rectangle 1649" width="2.047" height="1.088" rx="0.544" transform="translate(18.73 30.651) rotate(101.57)" fill="#ecc358"/>
      <path id="Path_43731" data-name="Path 43731" d="M60.594,118.36a1.776,1.776,0,0,0,1.23,2.309,1.385,1.385,0,0,0,1.416,1.208" transform="translate(-42.813 -98.584)" fill="none" stroke="#472a1c" stroke-linecap="round" stroke-linejoin="round" stroke-width="0.43"/>
      <rect id="Rectangle_1650" data-name="Rectangle 1650" width="2.047" height="1.088" rx="0.544" transform="translate(81.409 30.863) rotate(101.57)" fill="#ecc358"/>
      <rect id="Rectangle_1651" data-name="Rectangle 1651" width="2.047" height="1.088" rx="0.544" transform="matrix(-0.201, 0.98, -0.98, -0.201, 80.335, 30.63)" fill="#ecc358"/>
      <rect id="Rectangle_1652" data-name="Rectangle 1652" width="2.047" height="1.088" rx="0.544" transform="translate(82.459 31.078) rotate(101.57)" fill="#ecc358"/>
      <rect id="Rectangle_1653" data-name="Rectangle 1653" width="2.047" height="1.088" rx="0.544" transform="translate(85.293 31.658) rotate(101.57)" fill="#ecc358"/>
      <rect id="Rectangle_1654" data-name="Rectangle 1654" width="2.047" height="1.088" rx="0.544" transform="matrix(-0.201, 0.98, -0.98, -0.201, 84.218, 31.43)" fill="#ecc358"/>
      <rect id="Rectangle_1655" data-name="Rectangle 1655" width="2.047" height="1.088" rx="0.544" transform="translate(86.344 31.874) rotate(101.57)" fill="#ecc358"/>
      <path id="Path_43732" data-name="Path 43732" d="M663.041,263.18a1.883,1.883,0,0,1,1.074,1.381,10.563,10.563,0,0,0,.377,1.691c.253.6.79,1.194.635,1.8a1.332,1.332,0,0,1-1.252.817,4.777,4.777,0,0,1-1.7-.284Z" transform="translate(-377.385 -179.112)" fill="#a89b94"/>
      <path id="Path_43733" data-name="Path 43733" d="M619.25,291.153c1.221-4.919,3.108-10.73,6.726-14.264a38.484,38.484,0,0,0,2.97-2.8c2.89-3.463,2.433-8.639,4.506-12.648a4.038,4.038,0,0,1,2.189-2.166c1.558-.484,3.236.764,3.791,2.3a8.81,8.81,0,0,1-.067,4.83,60.5,60.5,0,0,1-3.139,10.1c.533,3,1.145,9.221.622,12.226-1.252,7.21-4.546,7.525-5.958,9.429Z" transform="translate(-353.514 -176.883)" fill="#2d1a14"/>
      <path id="Path_43734" data-name="Path 43734" d="M663.244,258.341c-.444,1.8-1.332,3.139-1.967,2.979s-.772-1.754-.315-3.551,1.332-3.139,1.971-2.983S663.7,256.534,663.244,258.341Z" transform="translate(-376.559 -174.437)" fill="#2d1a14"/>
      <path id="Path_43735" data-name="Path 43735" d="M655.881,257.205c-.444,1.807-1.332,3.139-1.971,2.979s-.768-1.749-.311-3.552,1.332-3.139,1.967-2.979S656.334,255.4,655.881,257.205Z" transform="translate(-372.462 -173.808)" fill="#2d1a14"/>
      <path id="Path_43736" data-name="Path 43736" d="M613.235,296.815a7.4,7.4,0,0,1-5.27-5.811,9.913,9.913,0,0,1,2.792-8.4c.479-.5.994-.959,1.5-1.4s1.008-.888,1.456-1.363a10.032,10.032,0,0,0,2.22-3.822,5.663,5.663,0,0,0-.315-4.71,3.24,3.24,0,0,0-2.015-1.332,2.219,2.219,0,0,0-1.687.284.823.823,0,1,1-.928-1.358,3.814,3.814,0,0,1,2.939-.537A4.848,4.848,0,0,1,617,270.427a7.249,7.249,0,0,1,.506,6.1,11.675,11.675,0,0,1-2.6,4.439c-.5.537-1.048,1.012-1.571,1.478s-.963.848-1.394,1.3a8.245,8.245,0,0,0-2.362,6.965,5.622,5.622,0,0,0,4.928,4.648A.822.822,0,1,1,614.43,297,5.771,5.771,0,0,1,613.235,296.815Z" transform="translate(-347.166 -181.942)" fill="#2d1a14"/>
      <path id="Path_43737" data-name="Path 43737" d="M651.66,258.267a3.823,3.823,0,0,1,2.175,1.07c1.079,1.168,1.021,3.032,1.989,4.288.444.59,1.132,1.057,1.3,1.776a1.776,1.776,0,0,1-.342,1.407,3.477,3.477,0,0,1-1.141.95c-2.948,1.669-6.8.843-9.4-1.15-.888-.666-2.22-1.776-2.073-3.01.1-.759.821-1.332,1.332-1.851q1.2-1.265,2.446-2.486c.444-.444.817-.963,1.452-1.048a7.933,7.933,0,0,1,2.246.04Z" transform="translate(-367.362 -176.316)" fill="#2d1a14"/>
      <path id="Path_43738" data-name="Path 43738" d="M658.323,202.038l-11.654-2.393L660,197.63" transform="translate(-359.585 -111.041)" fill="none" stroke="#472a1c" stroke-linecap="round" stroke-linejoin="round" stroke-width="0.67"/>
      <path id="Path_43739" data-name="Path 43739" d="M609.61,185.685,621,189.121l-10.761-8.111" transform="translate(-338.977 -101.799)" fill="none" stroke="#472a1c" stroke-linecap="round" stroke-linejoin="round" stroke-width="0.67"/>
      <path id="Path_43740" data-name="Path 43740" d="M606.738,307.394a9.494,9.494,0,0,0,.364-9.181,11.7,11.7,0,0,0-7.289-5.847,15.485,15.485,0,0,0-9.443.51,11.673,11.673,0,0,0-5.86,4.275,6.764,6.764,0,0,0-.444,6.988c1.256,2.1,5.243,3.281,7.733,3.2a63.369,63.369,0,0,0,7.374-1.176A12.049,12.049,0,0,1,606.738,307.394Z" transform="translate(-333.517 -195.06)" fill="#b4d1c6"/>
      <path id="Path_43741" data-name="Path 43741" d="M564.494,443.581c-4.439.311-6.286-.382-8.75,1.469-1.749,1.332-2.584,1.918-4.373,3.174a11.971,11.971,0,0,1-6.011,2.406,4.7,4.7,0,0,1,.528-1.651c1.376-2.966,4-6.015,5.367-8.977a17.854,17.854,0,0,0,11.019-3.831,3.4,3.4,0,0,1,1.714-.835,2.17,2.17,0,0,1,2.007,2.189A22.758,22.758,0,0,1,564.494,443.581Z" transform="translate(-312.427 -274.84)" fill="#ae4e3e"/>
      <path id="Path_43742" data-name="Path 43742" d="M583.788,384.024a194.243,194.243,0,0,1-4.848,29.14h30.632a19.651,19.651,0,0,0-2.81-15.463c-1.643-2.468-3.849-4.595-5.558-7.028s-2.908-5.363-2.2-8.164Z" transform="translate(-331.099 -245.467)" fill="#ae4e3e"/>
      <path id="Path_43743" data-name="Path 43743" d="M606.744,407.333c-1.643-2.468-3.849-4.595-5.558-7.028l-.3-.444q-2.575.027-5.154,0l-2.22-.031H583.135a194.812,194.812,0,0,1-4.2,22.952h30.632A19.71,19.71,0,0,0,606.744,407.333Z" transform="translate(-331.099 -255.098)" fill="#2d1a14"/>
      <path id="Path_43744" data-name="Path 43744" d="M598.926,329.431a7.4,7.4,0,0,0,.444-3.609,5.966,5.966,0,0,0-.795-2.193c0-.04-.049-.08-.076-.12a11.49,11.49,0,0,0-6.215-4.333c-.444-.138-.848-.262-1.274-.377-.3-.08-.608-.151-.91-.218a24.419,24.419,0,0,0-10.069-.111,23.9,23.9,0,0,0-3.551.994,10.26,10.26,0,0,0-6.624,7.9c-.759,4.519,2.486,7.014,2.974,11.1a22.29,22.29,0,0,1-.058,5.043c.16.391.311.786.479,1.172a9.585,9.585,0,0,0,2.9,3.738,7.8,7.8,0,0,0,2.184,1.048l.737.266c.382.1.768.2,1.154.275.306.058.613.111.923.155h.111l.222.027.471.049a21.925,21.925,0,0,0,3.818,0c.319-.027.639-.058.959-.1l.262-.031h.12l.444-.071c.666-.107,1.332-.24,1.984-.391a30.963,30.963,0,0,0,3.827-1.172c.67-.253,1.132-.444,1.749-.728s1.19-.564,1.776-.888h0a.382.382,0,0,0,.2-.364q-.04-.48-.12-.946l-.08-.408c-.511-2.348-1.558-4.639-1.394-7.041C595.752,335.038,597.918,332.3,598.926,329.431Z" transform="translate(-325.984 -209.595)" fill="#b4d1c6"/>
      <path id="Path_43745" data-name="Path 43745" d="M602.827,310.49c-2.171-1.185-3.809-4.8-3.108-7.64l-4.2,1.367a7.351,7.351,0,0,1-1.487,4.439,4.466,4.466,0,0,1-2.317,1.634,6.944,6.944,0,0,0,5.4,2.517A7.4,7.4,0,0,0,602.827,310.49Z" transform="translate(-338.206 -201.171)" fill="#ae4e3e"/>
      <path id="Path_43746" data-name="Path 43746" d="M598.31,307.845c2.193-1.026,4.133-2.557,4.44-4.555l-3.592,1.172A6.451,6.451,0,0,1,598.31,307.845Z" transform="translate(-341.87 -201.416)" fill="#2d1a14"/>
      <path id="Path_43747" data-name="Path 43747" d="M598.185,289.895h0a3.858,3.858,0,0,1-3.845-3.845v-5.576a3.858,3.858,0,0,1,3.845-3.845h0a3.853,3.853,0,0,1,3.844,3.845v5.576A3.853,3.853,0,0,1,598.185,289.895Z" transform="translate(-339.662 -186.591)" fill="#ae4e3e"/>
      <path id="Path_43748" data-name="Path 43748" d="M614.508,292.749A1.749,1.749,0,1,1,612.781,291,1.749,1.749,0,0,1,614.508,292.749Z" transform="translate(-348.932 -194.582)" fill="#ae4e3e"/>
      <path id="Path_43749" data-name="Path 43749" d="M567.142,347.385a9.248,9.248,0,0,1-4.75-1.585l-.226-.169a15.791,15.791,0,0,1-5.425-8.093c-.306-.946-.59-1.922-.888-2.921-.1-.342-.213-.679-.333-1.017a60.762,60.762,0,0,0,7.361-7.294c1.487-1.776,3.147-3.84,5.474-4.026A185.184,185.184,0,0,0,567.142,347.385Z" transform="translate(-318.076 -211.975)" fill="#b4d1c6"/>
      <path id="Path_43750" data-name="Path 43750" d="M616.651,319.8c-1.829,1.585.32,4.724.164,7.134-.4,6.277-.888,12.808,2.664,17.989,1.136.133,5.034.04,6.038-.519,2.766-1.532,8.977-5.207,10.979-7.654,0,0-5.6-7.068-8.151-10.521a14.241,14.241,0,0,0-10.837-6.06" transform="translate(-351.656 -210.596)" fill="#b4d1c6"/>
      <path id="Path_43751" data-name="Path 43751" d="M597.529,291.508l.8-.28a.217.217,0,0,0,.133-.28h0a.222.222,0,0,0-.28-.133l-.8.284a.213.213,0,0,0-.133.275h0a.213.213,0,0,0,.275.133Z" transform="translate(-341.275 -194.472)" fill="#2d1a14"/>
      <path id="Path_43752" data-name="Path 43752" d="M604.374,290.6l.777.342a.222.222,0,0,0,.289-.115h0a.222.222,0,0,0-.111-.289l-.781-.337a.218.218,0,0,0-.289.111h0A.222.222,0,0,0,604.374,290.6Z" transform="translate(-345.168 -194.124)" fill="#2d1a14"/>
      <path id="Path_43753" data-name="Path 43753" d="M580.219,224.04l.036.954-.715-.342.373.919" transform="translate(-322.256 -125.726)" fill="none" stroke="#472a1c" stroke-linecap="round" stroke-linejoin="round" stroke-width="0.29"/>
      <path id="Path_43754" data-name="Path 43754" d="M603.29,294.964a1.342,1.342,0,0,1,1.554-.173" transform="translate(-344.639 -196.583)" fill="none" stroke="#472a1c" stroke-linecap="round" stroke-linejoin="round" stroke-width="0.58"/>
      <path id="Path_43755" data-name="Path 43755" d="M596.89,294.964a1.336,1.336,0,0,1,1.549-.173" transform="translate(-341.08 -196.583)" fill="none" stroke="#472a1c" stroke-linecap="round" stroke-linejoin="round" stroke-width="0.58"/>
      <path id="Path_43756" data-name="Path 43756" d="M600.09,299.342l1.447-.022a.693.693,0,0,1-.573.533A.728.728,0,0,1,600.09,299.342Z" transform="translate(-342.86 -199.208)" fill="#2d1a14"/>
      <rect id="Rectangle_1656" data-name="Rectangle 1656" width="87.124" height="16.448" rx="8.224" transform="translate(213.586 151.396)" fill="#2d1a14"/>
      <path id="Path_43757" data-name="Path 43757" d="M582.88,442.082c5.016.355,7.081-.444,9.855,1.66,1.967,1.478,2.908,2.158,4.923,3.551A13.686,13.686,0,0,0,604.424,450a5.178,5.178,0,0,0-.59-1.86c-1.549-3.338-4.5-6.77-6.046-10.109a20.142,20.142,0,0,1-12.408-4.315,3.8,3.8,0,0,0-1.927-.941,2.444,2.444,0,0,0-2.264,2.468A25.015,25.015,0,0,0,582.88,442.082Z" transform="translate(-332.349 -273.417)" fill="#ae4e3e"/>
      <path id="Path_43758" data-name="Path 43758" d="M561.29,381.026l-2.26,1.683.093.12L542.942,375.7a3.552,3.552,0,0,1-1.776-4.608l.027-.067.182-.391,7.059-15.538c.972,3.037,2.664,6.508,5.363,8.63l-4.107,7.307-2.908-2.166,1.589,5.07,1.332-2.9,11.52,8.581a1.657,1.657,0,0,1,.209.182l-.324.084A7.411,7.411,0,0,0,561.29,381.026Z" transform="translate(-309.937 -230.225)" fill="#ae4e3e"/>
      <path id="Path_43759" data-name="Path 43759" d="M533.5,314.9l2.908,2.166-1.318,2.9Z" transform="translate(-296.655 -176.25)" fill="#ae4e3e"/>
      <path id="Path_43760" data-name="Path 43760" d="M584.637,412.626a1.933,1.933,0,0,1-.155.391q-.062.107-.133.213a2.1,2.1,0,0,1-.182.213,1.856,1.856,0,0,1-2.082.413l-.231-.1-.093-.12,2.26-1.683a7.406,7.406,0,0,1-.2-1.137l.324-.084a1.884,1.884,0,0,1,.471.777A1.923,1.923,0,0,1,584.637,412.626Z" transform="translate(-332.667 -261.159)" fill="#ae4e3e"/>
      <path id="Path_43761" data-name="Path 43761" d="M587.172,415.234l.772,2.433a1.465,1.465,0,0,0,1.842.963l2.22-.732a1.5,1.5,0,0,0,.946-1.873l-.773-2.433a1.461,1.461,0,0,0-1.842-.959l-2.22.728a1.5,1.5,0,0,0-.946,1.873Z" transform="translate(-335.637 -262.177)" fill="#ae4e3e"/>
      <path id="Path_43762" data-name="Path 43762" d="M585.957,418.284a.443.443,0,0,1-.129,0c-1.1-.218-3.481-3.179-4-3.818l-.093-.12,2.26-1.683.6-.444.324-.24.173,1.074.24,1.474Z" transform="translate(-332.656 -261.854)" fill="#ae4e3e"/>
      <path id="Path_43763" data-name="Path 43763" d="M582.06,414.436a3.924,3.924,0,0,0,.808,2.158,12.171,12.171,0,0,0,3.037,2.255,2.137,2.137,0,0,1,.4.324,2.96,2.96,0,0,1,.382.595,7.939,7.939,0,0,0,.994,1.4,1.265,1.265,0,0,0,.59.444.5.5,0,0,0,.608-.289.794.794,0,0,0-.16-.568,21.511,21.511,0,0,1-1.279-2.535,4.441,4.441,0,0,1,1.163.83c.36.417.63.888,1.017,1.3a4.638,4.638,0,0,0,1.838,1.065.684.684,0,0,0,.484.04c.155-.062.249-.289.124-.4.4.124.888.226,1.114-.111.3-.408-.111-.946-.444-1.332-1.194-1.438-1.483-3.481-2.664-4.95a8.9,8.9,0,0,0-3.552-2.393" transform="translate(-332.834 -262.015)" fill="#ae4e3e"/>
      <path id="Path_43764" data-name="Path 43764" d="M586.8,409.482c1.6.471,3.392.666,4.613,1.825.271.258.506.555.755.839a12.484,12.484,0,0,0,1.776,1.629c.231.173.488.386.493.679-1.776-.186-2.983-1.887-4.639-2.535-1.27-.5-2.77-.368-3.9-1.145a5.444,5.444,0,0,1-1.208-1.283c-.266-.355-.977-.981-1.026-1.381A27.594,27.594,0,0,0,586.8,409.482Z" transform="translate(-333.729 -259.702)" fill="#ae4e3e"/>
      <path id="Path_43765" data-name="Path 43765" d="M652.141,367.93l-.04-.062-.248-.346s-6.184-8.208-6.215-8.182c-2.078,1.478-5,3.636-6.362,4.7l4.439,5.438,2.464-2.641-.63,5.2-1.833-2.562-9.767,10.459a1.547,1.547,0,0,0-.169.213h.333a7.527,7.527,0,0,1,0,1.141l2.535,1.2-.071.133,14.65-9.918A3.449,3.449,0,0,0,652.141,367.93Z" transform="translate(-361.593 -232.583)" fill="#ae4e3e"/>
      <path id="Path_43766" data-name="Path 43766" d="M637.954,304.99l-2.464,2.641,1.833,2.562Z" transform="translate(-353.368 -170.739)" fill="#ae4e3e"/>
      <path id="Path_43767" data-name="Path 43767" d="M633.216,408.143a1.965,1.965,0,0,0,.226.351,2.2,2.2,0,0,0,.173.182,2.048,2.048,0,0,0,.218.173,1.887,1.887,0,0,0,2.126,0l.209-.142.071-.133-2.535-1.2a7.51,7.51,0,0,0,0-1.141h-.333a1.775,1.775,0,0,0-.324.839,1.871,1.871,0,0,0,.169,1.074Z" transform="translate(-361.176 -258.656)" fill="#ae4e3e"/>
      <rect id="Rectangle_1657" data-name="Rectangle 1657" width="5.452" height="5.274" rx="2.637" transform="translate(267.033 154.239) rotate(-82.88)" fill="#ae4e3e"/>
      <path id="Path_43768" data-name="Path 43768" d="M632.35,414.014a.485.485,0,0,0,.124-.036c1.043-.413,2.85-3.725,3.227-4.439l.071-.133-2.535-1.2-.688-.32-.36-.173v1.074l.035,1.474Z" transform="translate(-360.709 -259.479)" fill="#ae4e3e"/>
      <path id="Path_43769" data-name="Path 43769" d="M627.527,409.843a3.786,3.786,0,0,1-.4,2.22,12.115,12.115,0,0,1-2.579,2.752,2.507,2.507,0,0,0-.333.386,3.061,3.061,0,0,0-.266.648,7.989,7.989,0,0,1-.719,1.545,1.3,1.3,0,0,1-.506.533.5.5,0,0,1-.648-.169.754.754,0,0,1,.053-.577,21.223,21.223,0,0,0,.795-2.69,4.312,4.312,0,0,0-.994,1.017c-.275.471-.444,1-.764,1.447a4.66,4.66,0,0,1-1.616,1.376.7.7,0,0,1-.471.133c-.164-.031-.293-.235-.2-.373-.368.2-.812.386-1.119.1s-.067-.937.182-1.372c.914-1.616.821-3.649,1.7-5.283a9.094,9.094,0,0,1,3.045-2.979" transform="translate(-352.61 -259.952)" fill="#ae4e3e"/>
      <path id="Path_43770" data-name="Path 43770" d="M621.993,404.923c-1.492.755-3.219,1.274-4.208,2.624-.222.3-.4.635-.59.954a12.237,12.237,0,0,1-1.469,1.913c-.191.209-.408.466-.355.75,1.7-.515,2.593-2.388,4.1-3.325,1.159-.719,2.664-.888,3.631-1.833a5.4,5.4,0,0,0,.95-1.465c.2-.4.786-1.136.759-1.532A26.633,26.633,0,0,1,621.993,404.923Z" transform="translate(-351.352 -256.866)" fill="#ae4e3e"/>
      <rect id="Rectangle_1658" data-name="Rectangle 1658" width="25.806" height="21.935" rx="10.968" transform="translate(247.623 124.182)" fill="#b4d1c6"/>
      <path id="Path_43771" data-name="Path 43771" d="M633.04,424.71l-8.55,5.394a36.4,36.4,0,0,1,18.783-4.337" transform="translate(-356.427 -268.932)" fill="none" stroke="#c2c0f2" stroke-miterlimit="10" stroke-width="0.51"/>
      <path id="Path_43772" data-name="Path 43772" d="M552.231,422.15l7.725,3.876a47.814,47.814,0,0,0-18.645-3.245" transform="translate(-310.175 -267.509)" fill="none" stroke="#c2c0f2" stroke-miterlimit="10" stroke-width="0.51"/>
      <path id="Path_43773" data-name="Path 43773" d="M532.12,344.4a1.638,1.638,0,0,1,1.2.937,9.105,9.105,0,0,0,.679,1.332c.342.444.919.843.919,1.389a1.163,1.163,0,0,1-.888.972,4.191,4.191,0,0,1-1.492.124Z" transform="translate(-305.064 -224.275)" fill="#a89b94"/>
      <path id="Path_43774" data-name="Path 43774" d="M505.229,376.687c-.022-5.07.364-11.161,3.023-15.48.71-1.154,1.6-2.22,2.189-3.436,1.953-4.067.24-8.977,1.265-13.367a4.031,4.031,0,0,1,1.594-2.641c1.39-.848,3.321-.053,4.235,1.3a8.816,8.816,0,0,1,1.123,4.692,60.49,60.49,0,0,1-.568,10.566c1.252,2.779,1.2,6.051.977,9.092s-.657,6.1-.235,9.123Z" transform="translate(-290.111 -222.614)" fill="#a89b94"/>
      <path id="Path_43775" data-name="Path 43775" d="M531.253,338.774c0,1.86-.528,3.37-1.176,3.37s-1.176-1.509-1.176-3.37.524-3.374,1.176-3.374S531.253,336.9,531.253,338.774Z" transform="translate(-303.274 -219.271)" fill="#a89b94"/>
      <path id="Path_43776" data-name="Path 43776" d="M523.833,339.46c0,1.865-.528,3.374-1.177,3.374s-1.176-1.509-1.176-3.374.524-3.37,1.176-3.37S523.833,337.6,523.833,339.46Z" transform="translate(-299.148 -219.654)" fill="#a89b94"/>
      <path id="Path_43777" data-name="Path 43777" d="M494.72,387.207a7.414,7.414,0,0,1-6.535-4.342,9.915,9.915,0,0,1,.644-8.83c.342-.6.732-1.172,1.11-1.723s.759-1.11,1.074-1.678a10.009,10.009,0,0,0,1.225-4.249,5.689,5.689,0,0,0-1.461-4.493,3.241,3.241,0,0,0-2.286-.812,2.184,2.184,0,0,0-1.563.688.826.826,0,1,1-1.234-1.092,3.845,3.845,0,0,1,2.717-1.243,4.884,4.884,0,0,1,3.485,1.252,7.233,7.233,0,0,1,1.984,5.771,11.693,11.693,0,0,1-1.425,4.954c-.355.639-.764,1.239-1.163,1.816s-.724,1.057-1.03,1.6a8.288,8.288,0,0,0-.582,7.334,5.653,5.653,0,0,0,5.918,3.294.823.823,0,1,1,.333,1.611A5.881,5.881,0,0,1,494.72,387.207Z" transform="translate(-279.113 -232.632)" fill="#a89b94"/>
      <path id="Path_43778" data-name="Path 43778" d="M527.483,392a5.82,5.82,0,0,0,1.376,5.771v6.93" transform="translate(-302.34 -250.744)" fill="none" stroke="#362f36" stroke-linecap="round" stroke-linejoin="round" stroke-width="0.85"/>
      <path id="Path_43779" data-name="Path 43779" d="M513,406.2a6.376,6.376,0,0,1,4.084,2.131,13.154,13.154,0,0,1,2.384,4.071" transform="translate(-294.432 -258.64)" fill="none" stroke="#362f36" stroke-linecap="round" stroke-linejoin="round" stroke-width="0.85"/>
      <path id="Path_43780" data-name="Path 43780" d="M521.993,340.972a3.267,3.267,0,0,1,2.064.444c1.159.755,1.509,2.34,2.6,3.192.506.4,1.181.653,1.474,1.23a1.558,1.558,0,0,1,0,1.261,3.106,3.106,0,0,1-.759,1.048c-2.135,2.038-5.558,2.162-8.182,1.039-.888-.377-2.264-1-2.4-2.1a3.368,3.368,0,0,1,.715-1.842q.737-1.332,1.532-2.624c.293-.471.484-.986,1-1.194a7,7,0,0,1,1.9-.444Z" transform="translate(-296.536 -222.357)" fill="#a89b94"/>
      <path id="Path_43781" data-name="Path 43781" d="M526.7,274.945l-10.348.471,10.823-4.546" transform="translate(-287.119 -151.766)" fill="none" stroke="#362f36" stroke-linecap="round" stroke-linejoin="round" stroke-width="0.85"/>
      <path id="Path_43782" data-name="Path 43782" d="M482.2,274.945l10.353.471L481.73,270.87" transform="translate(-267.868 -151.766)" fill="none" stroke="#362f36" stroke-linecap="round" stroke-linejoin="round" stroke-width="0.85"/>
      <path id="Path_43783" data-name="Path 43783" d="M526.93,348.266a1.2,1.2,0,0,1,1.452,1.07" transform="translate(-302.178 -226.41)" fill="none" stroke="#362f36" stroke-linecap="round" stroke-linejoin="round" stroke-width="0.85"/>
      <path id="Path_43784" data-name="Path 43784" d="M534.527,347.38a1.207,1.207,0,0,0-1.163,1.381" transform="translate(-305.749 -225.932)" fill="none" stroke="#362f36" stroke-linecap="round" stroke-linejoin="round" stroke-width="0.85"/>
      <path id="Path_43785" data-name="Path 43785" d="M530.721,351.86A1.474,1.474,0,0,1,529.7,353.7" transform="translate(-303.719 -228.424)" fill="none" stroke="#362f36" stroke-linecap="round" stroke-linejoin="round" stroke-width="0.85"/>
      <path id="Path_43786" data-name="Path 43786" d="M532.129,352.26a1.469,1.469,0,0,0,1.372,1.625" transform="translate(-305.065 -228.646)" fill="none" stroke="#362f36" stroke-linecap="round" stroke-linejoin="round" stroke-width="0.85"/>
      <circle id="Ellipse_87" data-name="Ellipse 87" cx="5.722" cy="5.722" r="5.722" transform="translate(254.482 78.918)" fill="#2d1a14"/>
      <path id="Path_43787" data-name="Path 43787" d="M599.087,276.143a4.732,4.732,0,0,0,1.483,5.056V274.38a3.659,3.659,0,0,0-2.086-1.976,6.313,6.313,0,0,0-2.837-.5,5.675,5.675,0,0,0-2.22.444,2.935,2.935,0,0,0-1.558,1.563,2.771,2.771,0,0,0,.888,3.01,3.96,3.96,0,0,0,3.165.724A7.7,7.7,0,0,0,599.087,276.143Z" transform="translate(-338.212 -183.96)" fill="#2d1a14"/>
      <path id="Path_43788" data-name="Path 43788" d="M603.744,309.315a9.572,9.572,0,0,1,7.161-6.433c2.664-.515,5.953.289,7.343,2.6a6.93,6.93,0,0,1-.409,7.6,33.264,33.264,0,0,0-14.206,2.366A10.984,10.984,0,0,1,603.744,309.315Z" transform="translate(-344.614 -201.106)" fill="#b4d1c6"/>
      <path id="Path_43789" data-name="Path 43789" d="M593.636,315.762a14.54,14.54,0,0,0-4.4-9.056,5,5,0,0,0-3.476-1.669,4.085,4.085,0,0,0-3.454,3.294,11.976,11.976,0,0,0,.249,5.074A14.03,14.03,0,0,0,593.636,315.762Z" transform="translate(-332.868 -202.385)" fill="#b4d1c6"/>
      <path id="Path_43790" data-name="Path 43790" d="M604.62,310.066a6.306,6.306,0,0,1,2.695-4.1,18.645,18.645,0,0,1,4.533-2.184" transform="translate(-345.379 -201.688)" fill="none" stroke="#362f36" stroke-linecap="round" stroke-linejoin="round" stroke-width="0.85"/>
      <path id="Path_43791" data-name="Path 43791" d="M592.14,305.05a8.378,8.378,0,0,1,4,3.077" transform="translate(-338.439 -202.394)" fill="none" stroke="#362f36" stroke-linecap="round" stroke-linejoin="round" stroke-width="0.85"/>
      <path id="Path_43792" data-name="Path 43792" d="M576.57,365.953A16.164,16.164,0,0,1,575.344,356" transform="translate(-328.933 -230.726)" fill="none" stroke="#362f36" stroke-linecap="round" stroke-linejoin="round" stroke-width="0.85"/>
      <path id="Path_43793" data-name="Path 43793" d="M638.108,357.28a16.129,16.129,0,0,1-2.468,8.253" transform="translate(-362.628 -231.437)" fill="none" stroke="#362f36" stroke-linecap="round" stroke-linejoin="round" stroke-width="0.85"/>
      <path id="Path_43794" data-name="Path 43794" d="M588.963,395.776a5.887,5.887,0,0,1,5.771-6.477c2.579-.036,4.848,1.585,6.912,3.134l5.234,3.924" transform="translate(-336.656 -249.242)" fill="none" stroke="#362f36" stroke-linecap="round" stroke-linejoin="round" stroke-width="0.85"/>
      <path id="Path_43795" data-name="Path 43795" d="M592.41,330.47a14.073,14.073,0,0,0,12.715.679" transform="translate(-338.589 -216.529)" fill="none" stroke="#362f36" stroke-linecap="round" stroke-linejoin="round" stroke-width="0.85"/>
      <path id="Path_43796" data-name="Path 43796" d="M656.7,265.75a2.375,2.375,0,0,1,1.3,1.873" transform="translate(-374.338 -180.541)" fill="none" stroke="#c2c0f2" stroke-linecap="round" stroke-linejoin="round" stroke-width="0.59"/>
      <path id="Path_43797" data-name="Path 43797" d="M663.47,268.6a2.815,2.815,0,0,1,1.492-1.332" transform="translate(-378.102 -181.386)" fill="none" stroke="#c2c0f2" stroke-linecap="round" stroke-linejoin="round" stroke-width="0.59"/>
      <path id="Path_43798" data-name="Path 43798" d="M659.784,272.26a1.365,1.365,0,0,1-1.474,1.629" transform="translate(-375.233 -184.161)" fill="none" stroke="#c2c0f2" stroke-linecap="round" stroke-linejoin="round" stroke-width="0.59"/>
      <path id="Path_43799" data-name="Path 43799" d="M661.67,274.08a2.135,2.135,0,0,0,.728,1.429" transform="translate(-377.102 -185.173)" fill="none" stroke="#c2c0f2" stroke-linecap="round" stroke-linejoin="round" stroke-width="0.59"/>
      <path id="Path_43800" data-name="Path 43800" d="M642.992,298.63A9.62,9.62,0,0,1,641.66,311.8" transform="translate(-365.975 -198.825)" fill="none" stroke="#c2c0f2" stroke-linecap="round" stroke-linejoin="round" stroke-width="0.59"/>
      <path id="Path_43801" data-name="Path 43801" d="M57.455,273.756c-.79-2.828.715-5.944,3.108-7.68a13.733,13.733,0,0,1,8.364-2.22,10.7,10.7,0,0,1-3.179,7.436C63.767,273.281,60.243,273.712,57.455,273.756Z" transform="translate(-41.005 -179.487)" fill="#b4d1c6" opacity="0.5"/>
      <path id="Path_43802" data-name="Path 43802" d="M113.29,243.832a3.836,3.836,0,0,1,4.28.178,7.092,7.092,0,0,1,2.53,3.7,5.549,5.549,0,0,1-4.178-.266C114.613,246.828,113.792,245.186,113.29,243.832Z" transform="translate(-72.171 -168.035)" fill="#b4d1c6" opacity="0.5"/>
      <path id="Path_43803" data-name="Path 43803" d="M263.05,332.272a3.869,3.869,0,0,1,2.73-3.307,7.134,7.134,0,0,1,4.475.217,5.518,5.518,0,0,1-2.735,3.17C266.242,333.026,264.435,332.689,263.05,332.272Z" transform="translate(-155.446 -215.547)" fill="#b4d1c6" opacity="0.5"/>
      <path id="Path_43804" data-name="Path 43804" d="M460.843,125.994l-24.417,7.658a3.313,3.313,0,1,1-1.984-6.322l21.576-6.77-2.6-22.091,3.045,1.931,6.637,21.775A3.312,3.312,0,0,1,460.843,125.994Z" transform="translate(-249.459 -87.524)" fill="#ba4230"/>
      <path id="Path_43805" data-name="Path 43805" d="M445.1,202.356c.124-.28.253-.555.391-.826Z" transform="translate(-256.676 -144.831)" fill="#ffbf80"/>
      <path id="Path_43806" data-name="Path 43806" d="M373.781,175.433a8.385,8.385,0,0,1-.5-4.1,6.756,6.756,0,0,1,.986-2.624,10.49,10.49,0,0,1,3.525-3.312,16.8,16.8,0,0,1,3.108-1.456l.444-.155q1.225-.4,2.482-.679a27.862,27.862,0,0,1,11.431-.129,27.168,27.168,0,0,1,4.031,1.128,11.711,11.711,0,0,1,5.358,4,11.409,11.409,0,0,1,2.126,4.963,8.878,8.878,0,0,1,.084,2.5,2.489,2.489,0,0,1-.062.444.582.582,0,0,0-.444.244,20.785,20.785,0,0,0-3.005,5.718c-.036.1-.067.2-.1.306a.516.516,0,0,0-.16.164,18.281,18.281,0,0,0-2.184,6.925,48.169,48.169,0,0,0-1.283,7.756.6.6,0,0,0-.044.226v.253c-.142,1.634-.226,3.272-.289,4.883h-.075a70.077,70.077,0,0,1-17.953-.653,8.371,8.371,0,0,1-3.3-1.088c-2.126-1.456-2.477-4.439-2.024-7,.027-.155.058-.311.089-.444.582-2.664,1.776-5.274,1.58-7.991C377.386,181.782,374.922,178.674,373.781,175.433Z" transform="translate(-216.704 -123.098)" fill="#ffbf80"/>
      <path id="Path_43807" data-name="Path 43807" d="M404.3,141.092l-4.777-.222c.511,2.761-1.305,9.27-3.769,10.615a8.534,8.534,0,0,0,6.5,2.615,8.145,8.145,0,0,0,5.7-2.34C404.584,149.007,403.5,145.323,404.3,141.092Z" transform="translate(-229.235 -111.101)" fill="#ba4230"/>
      <path id="Path_43808" data-name="Path 43808" d="M394.215,203.486a20.035,20.035,0,0,0,10.894,10.877c.3.124.444-.36.133-.484A19.476,19.476,0,0,1,394.7,203.353C394.574,203.06,394.09,203.189,394.215,203.486Z" transform="translate(-228.37 -145.753)" fill="#cc8e56"/>
      <path id="Path_43809" data-name="Path 43809" d="M415.172,329.929c-.355-5.549-3.9-65.077-3.578-70.627l9.159-6.872c9.367,10.97,2.912,71.319,2.664,77.437Z" transform="translate(-238.033 -173.135)" fill="#b4d1c6"/>
      <path id="Path_43810" data-name="Path 43810" d="M378.111,329.027c0-7.076-5.456-60.132,1.5-79.057l11.636,5.984c.1,6.308-4.683,66.689-5.443,72.949Z" transform="translate(-218.295 -171.767)" fill="#b4d1c6"/>
      <path id="Path_43811" data-name="Path 43811" d="M450.389,149.139a1.775,1.775,0,0,0-.639-.8,1.957,1.957,0,0,0-1.572.1,85.717,85.717,0,0,1-10.157,2.948c-3.729.839-7.964.852-9.891,4.795a25.355,25.355,0,0,1,5.927,3.476c4.577,3.645-6.939,11.724-1.922,16.1,7.844,5.46,15.649-3.281,17.216-10.375a15.414,15.414,0,0,1,1.2-3.334A14.827,14.827,0,0,0,450.389,149.139Z" transform="translate(-247.24 -115.179)" fill="#ffbf80"/>
      <path id="Path_43812" data-name="Path 43812" d="M421.789,106.74,417.94,122.1l6.171-10.65" transform="translate(-232.397 -60.501)" fill="none" stroke="#cc8e56" stroke-linecap="round" stroke-linejoin="round" stroke-width="1.29"/>
      <path id="Path_43813" data-name="Path 43813" d="M401.739,249.486l-21.513-.746s-2.766,10.881-2.966,17l13.762,3.512h1.909l13.052-4.635S404.642,252.98,401.739,249.486Z" transform="translate(-218.953 -171.083)" fill="#b4d1c6"/>
      <path id="Path_43814" data-name="Path 43814" d="M429.754,204.55l.444,15.294a4.364,4.364,0,0,1-2.131,3.871l-1.509.888L423.85,222.6l1.7-13.34Z" transform="translate(-244.86 -146.511)" fill="#ffbf80"/>
      <path id="Path_43815" data-name="Path 43815" d="M383.286,249.589H403.85a1.057,1.057,0,0,0,1.057-1.052h0a1.061,1.061,0,0,0-1.057-1.057H383.286a1.061,1.061,0,0,0-1.057,1.057h0A1.057,1.057,0,0,0,383.286,249.589Z" transform="translate(-221.717 -170.382)" fill="#b4d1c6"/>
      <path id="Path_43816" data-name="Path 43816" d="M408.091,291.35a7.178,7.178,0,0,1-8.461,0" transform="translate(-231.392 -194.776)" fill="none" stroke="#211d1d" stroke-linecap="round" stroke-linejoin="round" stroke-width="0.74"/>
      <path id="Path_43817" data-name="Path 43817" d="M346.416,189.492a48.911,48.911,0,0,0-1.709,9.984l-6.464,7.032a9.617,9.617,0,0,0-1.967,3.245l-7.414,19.383-2.752-.826,3.76-19.169a19.536,19.536,0,0,1,3.685-8.351l13.98-14.251a18.642,18.642,0,0,0-1.119,2.952Z" transform="translate(-190.511 -136.496)" fill="#ba4230"/>
      <path id="Path_43818" data-name="Path 43818" d="M428.627,424.546a6.007,6.007,0,0,0,3.063,6.091,23.715,23.715,0,0,0,4.737,1.332,11.773,11.773,0,0,1,7.241,5.922H422.74V424.36Z" transform="translate(-244.243 -268.738)" fill="#8a4915"/>
      <path id="Path_43819" data-name="Path 43819" d="M364.3,424.546a6.007,6.007,0,0,1-3.063,6.091,23.67,23.67,0,0,1-4.741,1.332,11.778,11.778,0,0,0-7.236,5.922h20.914V424.36Z" transform="translate(-203.384 -268.738)" fill="#8a4915"/>
      <path id="Path_43820" data-name="Path 43820" d="M421.5,456.035h21.567a1.385,1.385,0,0,0,1.385-1.385h0a1.39,1.39,0,0,0-1.385-1.39H421.5a1.394,1.394,0,0,0-1.39,1.39h0A1.39,1.39,0,0,0,421.5,456.035Z" transform="translate(-242.78 -284.808)" fill="#ffe1bd"/>
      <line id="Line_12" data-name="Line 12" x1="4.484" y2="0.213" transform="translate(183.31 160.017)" fill="none" stroke="#472a1c" stroke-linecap="round" stroke-linejoin="round" stroke-width="1.28"/>
      <line id="Line_13" data-name="Line 13" x1="4.484" y2="0.213" transform="translate(183.949 161.94)" fill="none" stroke="#472a1c" stroke-linecap="round" stroke-linejoin="round" stroke-width="1.28"/>
      <path id="Path_43821" data-name="Path 43821" d="M366.932,454.519H345.365a1.39,1.39,0,0,1-1.385-1.39h0a1.39,1.39,0,0,1,1.385-1.389h21.567a1.394,1.394,0,0,1,1.39,1.389h0a1.394,1.394,0,0,1-1.39,1.39Z" transform="translate(-200.448 -283.962)" fill="#ffe1bd"/>
      <line id="Line_14" data-name="Line 14" x2="4.484" y2="0.213" transform="translate(157.41 159.365)" fill="none" stroke="#472a1c" stroke-linecap="round" stroke-linejoin="round" stroke-width="1.28"/>
      <line id="Line_15" data-name="Line 15" x2="4.484" y2="0.213" transform="translate(156.771 161.287)" fill="none" stroke="#472a1c" stroke-linecap="round" stroke-linejoin="round" stroke-width="1.28"/>
      <path id="Path_43822" data-name="Path 43822" d="M358.76,285.447l4.2-.067.2,12.2" transform="translate(-199.49 -159.835)" fill="none" stroke="#362f36" stroke-linecap="round" stroke-linejoin="round" stroke-width="0.64"/>
      <path id="Path_43823" data-name="Path 43823" d="M384.952,387.31a4.071,4.071,0,0,1-2.522,3.028" transform="translate(-221.828 -248.136)" fill="none" stroke="#362f36" stroke-linecap="round" stroke-linejoin="round" stroke-width="0.64"/>
      <line id="Line_16" data-name="Line 16" x1="3.933" y2="0.067" transform="translate(159.372 127.832)" fill="none" stroke="#362f36" stroke-linecap="round" stroke-linejoin="round" stroke-width="0.64"/>
      <path id="Path_43824" data-name="Path 43824" d="M414.055,252.19H407.72v11.494" transform="translate(-226.714 -141.379)" fill="none" stroke="#362f36" stroke-linecap="round" stroke-linejoin="round" stroke-width="0.85"/>
      <path id="Path_43825" data-name="Path 43825" d="M428.8,353.56a6,6,0,0,0,4.528,4.146" transform="translate(-247.612 -229.369)" fill="none" stroke="#362f36" stroke-linecap="round" stroke-linejoin="round" stroke-width="0.85"/>
      <path id="Path_43826" data-name="Path 43826" d="M413.23,301.7h-4.95v4.573" transform="translate(-227.026 -168.91)" fill="none" stroke="#362f36" stroke-linecap="round" stroke-linejoin="round" stroke-width="0.85"/>
      <line id="Line_17" data-name="Line 17" x1="5.873" transform="translate(178.497 155.813)" fill="none" stroke="#362f36" stroke-linecap="round" stroke-linejoin="round" stroke-width="0.85"/>
      <line id="Line_18" data-name="Line 18" x1="5.878" transform="translate(160.682 155.902)" fill="none" stroke="#362f36" stroke-linecap="round" stroke-linejoin="round" stroke-width="0.85"/>
      <path id="Path_43827" data-name="Path 43827" d="M472.682,87.5c-.1-1.052-.244-2.584-.346-3.636-.076-.768-.444-2.77.382-2.606.613,0,.795,2.437.844,3.441.2-.36.537-.826.95-.861.6-.058.75.364.83.768a2.89,2.89,0,0,1,1.39-.036,1.212,1.212,0,0,1,.888.963.847.847,0,0,0,.08.4c.089.133.28.173.36.306a.513.513,0,0,1,.044.284,9.537,9.537,0,0,1-.954,4.75c-.3.493-.817.977-1.376.843a1.572,1.572,0,0,1-.617-.377,58.6,58.6,0,0,1-5.327-5.119,1.167,1.167,0,0,1-.337-.542c-.04-.209.071-.746.417-.617C470.724,85.089,471.8,86.834,472.682,87.5Z" transform="translate(-270.234 -77.948)" fill="#b34432"/>
      <path id="Path_43828" data-name="Path 43828" d="M409.189,121.76V127.3a3.84,3.84,0,0,1-1.909,3.312,3.787,3.787,0,0,1-1.913.515,3.84,3.84,0,0,1-3.827-3.827V121.76a3.827,3.827,0,0,1,7.649,0Z" transform="translate(-232.454 -98.419)" fill="#ba4230"/>
      <path id="Path_43829" data-name="Path 43829" d="M396.54,133.849a1.474,1.474,0,1,0,1.474-1.469,1.474,1.474,0,0,0-1.474,1.469Z" transform="translate(-229.674 -106.38)" fill="#ba4230"/>
      <path id="Path_43830" data-name="Path 43830" d="M411.85,132.725c0,.138.293.257.706.306a3.552,3.552,0,0,0,.391.022,2.868,2.868,0,0,0,.444-.027c.382-.049.644-.16.639-.289s-.226-.231-.564-.289a3.2,3.2,0,0,0-.528-.04,3.316,3.316,0,0,0-.484.027C412.1,132.489,411.85,132.6,411.85,132.725Z" transform="translate(-238.187 -106.396)" fill="#fff"/>
      <path id="Path_43831" data-name="Path 43831" d="M413,132.66a.413.413,0,0,0,.2.351,3.546,3.546,0,0,0,.391.022,2.86,2.86,0,0,0,.444-.027.386.386,0,0,0,.178-.306.4.4,0,0,0-.1-.271,3.2,3.2,0,0,0-.528-.04,3.311,3.311,0,0,0-.484.027A.4.4,0,0,0,413,132.66Z" transform="translate(-238.827 -106.385)" fill="#2d1a14"/>
      <path id="Path_43832" data-name="Path 43832" d="M405.69,132.8c0,.138.293.257.706.306a3,3,0,0,1,.386.027,3.551,3.551,0,0,0,.444-.027c.377-.049.639-.164.639-.293s-.226-.231-.564-.284a3.437,3.437,0,0,0-1.012,0C405.934,132.569,405.686,132.68,405.69,132.8Z" transform="translate(-234.762 -106.444)" fill="#fff"/>
      <path id="Path_43833" data-name="Path 43833" d="M406.83,132.759a.409.409,0,0,0,.2.351,3,3,0,0,1,.386.027,3.548,3.548,0,0,0,.444-.027.408.408,0,0,0,.178-.311.377.377,0,0,0-.1-.266,3.435,3.435,0,0,0-1.012,0A.355.355,0,0,0,406.83,132.759Z" transform="translate(-235.396 -106.444)" fill="#2d1a14"/>
      <path id="Path_43834" data-name="Path 43834" d="M408.393,131.084a1.62,1.62,0,0,0-1.283.151" transform="translate(-235.552 -105.621)" fill="none" stroke="#472a1c" stroke-linecap="round" stroke-linejoin="round" stroke-width="0.3"/>
      <path id="Path_43835" data-name="Path 43835" d="M415.05,131.192a1.607,1.607,0,0,0-1.27-.235" transform="translate(-239.26 -105.565)" fill="none" stroke="#472a1c" stroke-linecap="round" stroke-linejoin="round" stroke-width="0.3"/>
      <path id="Path_43836" data-name="Path 43836" d="M391.268,63.709l-.058-.533-.471.355v-.5" transform="translate(-217.273 -36.195)" fill="none" stroke="#472a1c" stroke-linecap="round" stroke-linejoin="round" stroke-width="0.3"/>
      <path id="Path_43837" data-name="Path 43837" d="M411.024,136.78a.6.6,0,0,1,0,.089.946.946,0,1,1-1.887,0,.591.591,0,0,1,0-.089Z" transform="translate(-236.678 -108.827)" fill="#fff"/>
      <path id="Path_43838" data-name="Path 43838" d="M360.518,199.481c-5.856-4.138-10.353-12.009-9.065-19.063,2.286-2.468,7.734-6.708,10.4-8.759a8.609,8.609,0,0,1,3.063-1.709,3.229,3.229,0,0,1,3.241.861,4.526,4.526,0,0,1,.79,2.464C369.925,182.54,366.223,192.107,360.518,199.481Z" transform="translate(-204.48 -127.209)" fill="#ffbf80"/>
      <path id="Path_43839" data-name="Path 43839" d="M324.025,282.75c-.648.839-1.594,2.047-2.242,2.886-.475.613-1.585,2.317-2.064,1.634-.444-.444,1.092-2.322,1.749-3.081a1.529,1.529,0,0,1-1.287-.027c-.475-.373-.293-.777-.075-1.132a2.855,2.855,0,0,1-1.034-.928,1.212,1.212,0,0,1,0-1.332c.084-.111.2-.209.218-.346s-.084-.315-.049-.471a.546.546,0,0,1,.16-.24,9.572,9.572,0,0,1,3.956-2.8,1.412,1.412,0,0,1,1.58.333,1.615,1.615,0,0,1,.191.7,58.493,58.493,0,0,1,.36,7.378,1.128,1.128,0,0,1-.124.622c-.115.182-.564.5-.728.164C323.812,285.848,324.207,283.842,324.025,282.75Z" transform="translate(-186.486 -186.7)" fill="#b34432"/>
      <path id="Path_43840" data-name="Path 43840" d="M409.189,121.738v2.934a5.678,5.678,0,0,1-2-.932,6,6,0,0,1-2.446-4,6.508,6.508,0,0,1-3.205,4.692V121.72a3.827,3.827,0,0,1,7.649,0Z" transform="translate(-232.454 -98.397)" fill="#2d1a14"/>
      <path id="Path_43841" data-name="Path 43841" d="M404.007,105.1h0A6.011,6.011,0,0,1,398,99.1h0a6.011,6.011,0,0,1,6-5.993h0a6.011,6.011,0,0,1,5.993,5.993h0A6.011,6.011,0,0,1,404.007,105.1Z" transform="translate(-230.486 -84.543)" fill="#2d1a14"/>
      <circle id="Ellipse_88" data-name="Ellipse 88" cx="5.327" cy="5.327" r="5.327" transform="translate(195.744 8.307) rotate(-76.72)" fill="#ffb8b8"/>
      <path id="Path_43842" data-name="Path 43842" d="M400.518,112.6a12.994,12.994,0,0,0,.191,7.409c1.088-2.193,2.344-4.839,3.427-7.036-.111-.084.147-.386.036-.475a14.126,14.126,0,0,0,4.328,5.891c-.04-1.629-.151-3.108-.191-4.719-1.088-1.079-1.918-2.317-3.387-2.748S400.927,111.123,400.518,112.6Z" transform="translate(-231.637 -94.375)" fill="#bebefc"/>
      <path id="Path_43843" data-name="Path 43843" d="M409.47,103.461a11.542,11.542,0,0,1,7.578-7.991C415.947,99.35,413.186,101.92,409.47,103.461Z" transform="translate(-236.864 -85.856)" fill="#bebefc"/>
      <path id="Path_43844" data-name="Path 43844" d="M403.54,95.364a14.335,14.335,0,0,0-5.531-12.484C397.68,87.883,399.842,92.025,403.54,95.364Z" transform="translate(-230.473 -78.855)" fill="#bebefc"/>
      <path id="Path_43845" data-name="Path 43845" d="M469.065,71.84a7.005,7.005,0,0,1-1.7,8.617" transform="translate(-269.054 -72.716)" fill="none" stroke="#211d1d" stroke-linecap="round" stroke-linejoin="round" stroke-width="0.74"/>
      <path id="Path_43846" data-name="Path 43846" d="M473.855,71.6c1.554,2.779.741,8.435-2.815,9.918" transform="translate(-271.1 -72.583)" fill="none" stroke="#211d1d" stroke-linecap="round" stroke-linejoin="round" stroke-width="0.74"/>
      <path id="Path_43847" data-name="Path 43847" d="M636.321,164.486a3.888,3.888,0,0,1-.133-4.284,7.1,7.1,0,0,1,3.5-2.792,5.532,5.532,0,0,1,.044,4.186C639.216,162.946,637.64,163.887,636.321,164.486Z" transform="translate(-362.612 -120.298)" fill="#b4d1c6" opacity="0.5"/>
      <path id="Path_43848" data-name="Path 43848" d="M685.729,324.356a3.879,3.879,0,0,1-.133-4.284,7.1,7.1,0,0,1,3.5-2.792,5.553,5.553,0,0,1,.04,4.186C688.624,322.816,687.043,323.753,685.729,324.356Z" transform="translate(-390.085 -209.195)" fill="#b4d1c6" opacity="0.5"/>
      <path id="Path_43849" data-name="Path 43849" d="M624.81,210.75c.1-2.846,2.411-5.283,5.11-6.189a13.282,13.282,0,0,1,8.382.408,10.375,10.375,0,0,1-5.123,5.936C630.785,212.166,627.4,211.531,624.81,210.75Z" transform="translate(-356.605 -146.234)" fill="#b4d1c6" opacity="0.5"/>
      <path id="Path_43850" data-name="Path 43850" d="M283.13,393.933a3.74,3.74,0,0,0-5.327-4.883,31.2,31.2,0,0,0-14.082,21.265,4.6,4.6,0,0,0,.155,2.664,1.967,1.967,0,0,0,1.088,1.048c.653.235,1.025-.089,1.332-.7a2.5,2.5,0,0,0,.249-1.292l-.253-3.9c-.164-2.6,1.865-4.058,4-5.58a49.986,49.986,0,0,1,6.926-3.609,13.168,13.168,0,0,0,5.887-4.968Z" transform="translate(-155.748 -248.77)" fill="#2d1a14"/>
      <path id="Path_43851" data-name="Path 43851" d="M310.569,391.2a3.736,3.736,0,0,0-6.131-3.813,31.225,31.225,0,0,0-9.944,23.484,4.631,4.631,0,0,0,.644,2.61,1.966,1.966,0,0,0,1.265.826c.684.111.99-.271,1.185-.932a2.49,2.49,0,0,0,0-1.332l-.959-3.787c-.644-2.526,1.083-4.333,2.886-6.215a49.554,49.554,0,0,1,6.144-4.821c2.078-1.576,4.053-3.489,4.883-5.962A.488.488,0,0,1,310.569,391.2Z" transform="translate(-172.923 -247.613)" fill="#2d1a14"/>
      <path id="Path_43852" data-name="Path 43852" d="M363.458,315.234a8.368,8.368,0,1,0,16.515,1.594c1.416.768,2.73,1.412,4.151,2.18.626.342,1.465.662,1.989.173a1.154,1.154,0,0,0,.186-1.261,2.854,2.854,0,0,0-.861-1.025c-2.22-1.825-4.235-2.837-7.1-2.708-1.088,2.686-2.823,5.962-5.66,6.539C371.329,318.244,366.273,315.429,363.458,315.234Z" transform="translate(-211.158 -207.469)" fill="#2d1a14"/>
      <path id="Path_43853" data-name="Path 43853" d="M273.9,361.771a42.174,42.174,0,0,1-28.2-18.131c-.688,1.776-1.478,3.25-.732,5.008a7.516,7.516,0,0,0,3.951,3.938,5.477,5.477,0,0,0,.444,5.27,5.327,5.327,0,0,0,4.808,2.029,6.732,6.732,0,0,0,7.143,4.386c1.585,1.98,4.408,2.761,6.939,2.6S272.577,363.937,273.9,361.771Z" transform="translate(-145.226 -223.853)" fill="#2d1a14"/>
      <path id="Path_43854" data-name="Path 43854" d="M367.327,274.951a6.215,6.215,0,0,1-2.73,3.432,5.6,5.6,0,0,1-2.26.737,6.785,6.785,0,0,1-2.007-.093,19.254,19.254,0,0,1-4.715,11.542l-13.669-1.776a10.69,10.69,0,0,1,5.279-9.989,7.782,7.782,0,0,1-4.138-1.172A11.2,11.2,0,0,0,351.078,271a3.463,3.463,0,0,1-2.855-4.635,25.751,25.751,0,0,0,7.614,3.947c1.745.555,2.22-.413,3.973.12a3.387,3.387,0,0,1,2.1,3.077,3.671,3.671,0,0,1-.1,1.172C363.615,274.716,365.533,274.907,367.327,274.951Z" transform="translate(-199.302 -180.886)" fill="#2d1a14"/>
      <path id="Path_43855" data-name="Path 43855" d="M332.921,313.648c-1.137-3.516-4.861-5.718-8.546-6.02a13.385,13.385,0,0,0-11.938,5.714c-3.068,4.533-3.068,10.53-4.728,15.7a12.844,12.844,0,0,1-5.758,4.595,4.346,4.346,0,0,0,2.331-.218,21.58,21.58,0,0,0-6.659,9.056l-.04.071c-1.736,3.427-2.593,10.006,3.72,11.942,4.115,1.265,9.789-5.74,11.685-8.919,2.593-4.351,4.346-9.252,7.667-13.074,2.606-3,6.038-5.163,8.75-8.062S334.142,317.426,332.921,313.648Z" transform="translate(-173.949 -203.809)" fill="#2d1a14"/>
      <path id="Path_43856" data-name="Path 43856" d="M337.529,314.021c-2.122-4.519-6.268-6.1-9.953-6.4-.364-.031-.733-.044-1.1-.04,1.039,2.974.555,6.539-.444,9.407-1.172,3.37-3.689,6.921-7.525,7.179a28.651,28.651,0,0,1-5.5,9.07c-2.078,2.313-4.8,3.929-6.868,6.251a10.371,10.371,0,0,0-2.584,4.466,3.339,3.339,0,0,0,.262,2.22,5.476,5.476,0,0,1,.559,1.243c.391,1.736-.888,3.3-2.3,4.5a25.749,25.749,0,0,0,5.962-1.47c4.12-1.625,7.25-4.91,10.064-8.311a24.99,24.99,0,0,1,3.92-5.771c2.6-3,8.879-3.552,13.265-8.373C337.879,325.132,340.019,319.308,337.529,314.021Z" transform="translate(-177.149 -203.8)" fill="#ead4c5"/>
      <path id="Path_43857" data-name="Path 43857" d="M379.05,269.623a5.283,5.283,0,0,0,2.144-4.883,5.2,5.2,0,0,1-1.23,8.661C379.525,272.185,379.494,270.835,379.05,269.623Z" transform="translate(-219.949 -179.98)" fill="#2d1a14"/>
      <path id="Path_43858" data-name="Path 43858" d="M340.077,322.86a10.113,10.113,0,1,0,15.9,12.208c.959,1.7,1.891,3.2,2.854,4.883.422.75,1.079,1.616,1.927,1.447a1.39,1.39,0,0,0,1-1.168,3.432,3.432,0,0,0-.226-1.6c-1.088-3.285-2.522-5.62-5.532-7.321-2.832,2.055-6.708,4.306-9.984,3.072C346.213,330.984,342.821,324.862,340.077,322.86Z" transform="translate(-196.616 -212.298)" fill="#2d1a14"/>
      <path id="Path_43859" data-name="Path 43859" d="M363.243,298.963a7.187,7.187,0,0,1-3.889-4.821,7.1,7.1,0,0,1,1.429-6,8.155,8.155,0,0,0,.954,4.652,5.469,5.469,0,0,0,3.814,2.721,4.1,4.1,0,0,0,4.133-1.913,13.762,13.762,0,0,1-3.13,7.733C365.125,300.686,364.664,299.62,363.243,298.963Z" transform="translate(-208.905 -192.991)" fill="#ead4c5"/>
      <path id="Path_43860" data-name="Path 43860" d="M379.767,279.175a1.176,1.176,0,0,1-.129,0c-.83-.076-1.927,0-2.424-.817-.209-.337-.133-.79-.293-1.154-.444-1.034-1.842-1.385-2.437-2.348h.155l-.2-.031-3.525-.444a3.169,3.169,0,0,0,1.62.826,2.1,2.1,0,0,1,1.865,2.326,8.466,8.466,0,0,0-.475,1.82,1.776,1.776,0,0,0,.835,1.31,3.791,3.791,0,0,0,1.536.528,15.332,15.332,0,0,0,1.94.115c.289,0,1.287.315.986.737-.444.6-.915,1.079-.759,1.514a5.6,5.6,0,0,0,2.26-.737,6.215,6.215,0,0,0,2.73-3.432C381.906,279.37,381.294,279.241,379.767,279.175Z" transform="translate(-215.422 -185.34)" fill="#ead4c5"/>
      <path id="Path_43861" data-name="Path 43861" d="M396.215,286.353l-.679-.089a.613.613,0,0,1-.533-.688h0a.617.617,0,0,1,.693-.533l.679.089a.613.613,0,0,1,.533.688h0a.617.617,0,0,1-.693.533Z" transform="translate(-228.817 -191.267)" fill="#2d1a14"/>
      <path id="Path_43862" data-name="Path 43862" d="M393.886,287.06a4.715,4.715,0,0,1-2.486,2.22" transform="translate(-226.816 -192.391)" fill="none" stroke="#472a1c" stroke-linecap="round" stroke-linejoin="round" stroke-width="0.4"/>
      <path id="Path_43863" data-name="Path 43863" d="M372.63,281.346a1.2,1.2,0,0,1,1.74.759" transform="translate(-216.379 -189.132)" fill="none" stroke="#ead4c5" stroke-linecap="round" stroke-linejoin="round" stroke-width="0.8"/>
      <path id="Path_43864" data-name="Path 43864" d="M344.94,300.9c1.088,5.594,8.972,10.441,15.094,6.748" transform="translate(-200.981 -200.087)" fill="none" stroke="#bebefc" stroke-linecap="round" stroke-linejoin="round" stroke-width="5"/>
      <path id="Path_43865" data-name="Path 43865" d="M275.21,187.977a6.052,6.052,0,0,1,6.708.28,11.243,11.243,0,0,1,3.964,5.771,8.674,8.674,0,0,1-6.544-.413C277.288,192.673,276,190.1,275.21,187.977Z" transform="translate(-162.208 -136.8)" fill="#b4d1c6" opacity="0.5"/>
      <path id="Path_43866" data-name="Path 43866" d="M465.61,260.394a6.052,6.052,0,0,1,6.708.275,11.193,11.193,0,0,1,3.964,5.793,8.688,8.688,0,0,1-6.548-.413C467.683,265.091,466.4,262.516,465.61,260.394Z" transform="translate(-268.081 -177.067)" fill="#b4d1c6" opacity="0.5"/>
      <path id="Path_43867" data-name="Path 43867" d="M458,239.722a3.869,3.869,0,0,1,2.73-3.307,7.134,7.134,0,0,1,4.475.218,5.519,5.519,0,0,1-2.735,3.17C461.21,240.476,459.4,240.139,458,239.722Z" transform="translate(-263.849 -164.084)" fill="#b4d1c6" opacity="0.5"/>
      <path id="Path_43868" data-name="Path 43868" d="M343.17,151.633a3.863,3.863,0,0,1,2.73-3.3,7.072,7.072,0,0,1,4.475.218,5.549,5.549,0,0,1-2.735,3.17C346.362,152.392,344.555,152.033,343.17,151.633Z" transform="translate(-199.997 -115.103)" fill="#b4d1c6" opacity="0.5"/>
    </g>
  </g>
</svg>
